G04 #@! TF.GenerationSoftware,KiCad,Pcbnew,(5.1.12-1-10_14)*
G04 #@! TF.CreationDate,2023-04-25T20:34:31-07:00*
G04 #@! TF.ProjectId,bloo,626c6f6f-2e6b-4696-9361-645f70636258,rev?*
G04 #@! TF.SameCoordinates,Original*
G04 #@! TF.FileFunction,Paste,Bot*
G04 #@! TF.FilePolarity,Positive*
%FSLAX46Y46*%
G04 Gerber Fmt 4.6, Leading zero omitted, Abs format (unit mm)*
G04 Created by KiCad (PCBNEW (5.1.12-1-10_14)) date 2023-04-25 20:34:31*
%MOMM*%
%LPD*%
G01*
G04 APERTURE LIST*
%ADD10R,0.800000X0.900000*%
%ADD11R,1.270000X0.660400*%
%ADD12R,0.660400X1.270000*%
G04 APERTURE END LIST*
G36*
G01*
X128463400Y-59598399D02*
X128463400Y-60848401D01*
G75*
G02*
X128213401Y-61098400I-249999J0D01*
G01*
X127413399Y-61098400D01*
G75*
G02*
X127163400Y-60848401I0J249999D01*
G01*
X127163400Y-59598399D01*
G75*
G02*
X127413399Y-59348400I249999J0D01*
G01*
X128213401Y-59348400D01*
G75*
G02*
X128463400Y-59598399I0J-249999D01*
G01*
G37*
G36*
G01*
X125363400Y-59598399D02*
X125363400Y-60848401D01*
G75*
G02*
X125113401Y-61098400I-249999J0D01*
G01*
X124313399Y-61098400D01*
G75*
G02*
X124063400Y-60848401I0J249999D01*
G01*
X124063400Y-59598399D01*
G75*
G02*
X124313399Y-59348400I249999J0D01*
G01*
X125113401Y-59348400D01*
G75*
G02*
X125363400Y-59598399I0J-249999D01*
G01*
G37*
G36*
G01*
X118602599Y-61936200D02*
X119852601Y-61936200D01*
G75*
G02*
X120102600Y-62186199I0J-249999D01*
G01*
X120102600Y-62986201D01*
G75*
G02*
X119852601Y-63236200I-249999J0D01*
G01*
X118602599Y-63236200D01*
G75*
G02*
X118352600Y-62986201I0J249999D01*
G01*
X118352600Y-62186199D01*
G75*
G02*
X118602599Y-61936200I249999J0D01*
G01*
G37*
G36*
G01*
X118602599Y-58836200D02*
X119852601Y-58836200D01*
G75*
G02*
X120102600Y-59086199I0J-249999D01*
G01*
X120102600Y-59886201D01*
G75*
G02*
X119852601Y-60136200I-249999J0D01*
G01*
X118602599Y-60136200D01*
G75*
G02*
X118352600Y-59886201I0J249999D01*
G01*
X118352600Y-59086199D01*
G75*
G02*
X118602599Y-58836200I249999J0D01*
G01*
G37*
G36*
G01*
X121726799Y-58861000D02*
X122976801Y-58861000D01*
G75*
G02*
X123226800Y-59110999I0J-249999D01*
G01*
X123226800Y-59911001D01*
G75*
G02*
X122976801Y-60161000I-249999J0D01*
G01*
X121726799Y-60161000D01*
G75*
G02*
X121476800Y-59911001I0J249999D01*
G01*
X121476800Y-59110999D01*
G75*
G02*
X121726799Y-58861000I249999J0D01*
G01*
G37*
G36*
G01*
X121726799Y-61961000D02*
X122976801Y-61961000D01*
G75*
G02*
X123226800Y-62210999I0J-249999D01*
G01*
X123226800Y-63011001D01*
G75*
G02*
X122976801Y-63261000I-249999J0D01*
G01*
X121726799Y-63261000D01*
G75*
G02*
X121476800Y-63011001I0J249999D01*
G01*
X121476800Y-62210999D01*
G75*
G02*
X121726799Y-61961000I249999J0D01*
G01*
G37*
G36*
G01*
X136560600Y-63489603D02*
X136560600Y-62189597D01*
G75*
G02*
X136810597Y-61939600I249997J0D01*
G01*
X137635603Y-61939600D01*
G75*
G02*
X137885600Y-62189597I0J-249997D01*
G01*
X137885600Y-63489603D01*
G75*
G02*
X137635603Y-63739600I-249997J0D01*
G01*
X136810597Y-63739600D01*
G75*
G02*
X136560600Y-63489603I0J249997D01*
G01*
G37*
G36*
G01*
X139685600Y-63489603D02*
X139685600Y-62189597D01*
G75*
G02*
X139935597Y-61939600I249997J0D01*
G01*
X140760603Y-61939600D01*
G75*
G02*
X141010600Y-62189597I0J-249997D01*
G01*
X141010600Y-63489603D01*
G75*
G02*
X140760603Y-63739600I-249997J0D01*
G01*
X139935597Y-63739600D01*
G75*
G02*
X139685600Y-63489603I0J249997D01*
G01*
G37*
G36*
G01*
X154650203Y-66512400D02*
X153350197Y-66512400D01*
G75*
G02*
X153100200Y-66262403I0J249997D01*
G01*
X153100200Y-65437397D01*
G75*
G02*
X153350197Y-65187400I249997J0D01*
G01*
X154650203Y-65187400D01*
G75*
G02*
X154900200Y-65437397I0J-249997D01*
G01*
X154900200Y-66262403D01*
G75*
G02*
X154650203Y-66512400I-249997J0D01*
G01*
G37*
G36*
G01*
X154650203Y-63387400D02*
X153350197Y-63387400D01*
G75*
G02*
X153100200Y-63137403I0J249997D01*
G01*
X153100200Y-62312397D01*
G75*
G02*
X153350197Y-62062400I249997J0D01*
G01*
X154650203Y-62062400D01*
G75*
G02*
X154900200Y-62312397I0J-249997D01*
G01*
X154900200Y-63137403D01*
G75*
G02*
X154650203Y-63387400I-249997J0D01*
G01*
G37*
G36*
G01*
X191124000Y-119389999D02*
X191124000Y-120640001D01*
G75*
G02*
X190874001Y-120890000I-249999J0D01*
G01*
X190073999Y-120890000D01*
G75*
G02*
X189824000Y-120640001I0J249999D01*
G01*
X189824000Y-119389999D01*
G75*
G02*
X190073999Y-119140000I249999J0D01*
G01*
X190874001Y-119140000D01*
G75*
G02*
X191124000Y-119389999I0J-249999D01*
G01*
G37*
G36*
G01*
X194224000Y-119389999D02*
X194224000Y-120640001D01*
G75*
G02*
X193974001Y-120890000I-249999J0D01*
G01*
X193173999Y-120890000D01*
G75*
G02*
X192924000Y-120640001I0J249999D01*
G01*
X192924000Y-119389999D01*
G75*
G02*
X193173999Y-119140000I249999J0D01*
G01*
X193974001Y-119140000D01*
G75*
G02*
X194224000Y-119389999I0J-249999D01*
G01*
G37*
G36*
G01*
X166156801Y-138317400D02*
X164906799Y-138317400D01*
G75*
G02*
X164656800Y-138067401I0J249999D01*
G01*
X164656800Y-137267399D01*
G75*
G02*
X164906799Y-137017400I249999J0D01*
G01*
X166156801Y-137017400D01*
G75*
G02*
X166406800Y-137267399I0J-249999D01*
G01*
X166406800Y-138067401D01*
G75*
G02*
X166156801Y-138317400I-249999J0D01*
G01*
G37*
G36*
G01*
X166156801Y-141417400D02*
X164906799Y-141417400D01*
G75*
G02*
X164656800Y-141167401I0J249999D01*
G01*
X164656800Y-140367399D01*
G75*
G02*
X164906799Y-140117400I249999J0D01*
G01*
X166156801Y-140117400D01*
G75*
G02*
X166406800Y-140367399I0J-249999D01*
G01*
X166406800Y-141167401D01*
G75*
G02*
X166156801Y-141417400I-249999J0D01*
G01*
G37*
G36*
G01*
X128916000Y-120538401D02*
X128916000Y-119288399D01*
G75*
G02*
X129165999Y-119038400I249999J0D01*
G01*
X129966001Y-119038400D01*
G75*
G02*
X130216000Y-119288399I0J-249999D01*
G01*
X130216000Y-120538401D01*
G75*
G02*
X129966001Y-120788400I-249999J0D01*
G01*
X129165999Y-120788400D01*
G75*
G02*
X128916000Y-120538401I0J249999D01*
G01*
G37*
G36*
G01*
X125816000Y-120538401D02*
X125816000Y-119288399D01*
G75*
G02*
X126065999Y-119038400I249999J0D01*
G01*
X126866001Y-119038400D01*
G75*
G02*
X127116000Y-119288399I0J-249999D01*
G01*
X127116000Y-120538401D01*
G75*
G02*
X126866001Y-120788400I-249999J0D01*
G01*
X126065999Y-120788400D01*
G75*
G02*
X125816000Y-120538401I0J249999D01*
G01*
G37*
G36*
G01*
X155031601Y-141442800D02*
X153781599Y-141442800D01*
G75*
G02*
X153531600Y-141192801I0J249999D01*
G01*
X153531600Y-140392799D01*
G75*
G02*
X153781599Y-140142800I249999J0D01*
G01*
X155031601Y-140142800D01*
G75*
G02*
X155281600Y-140392799I0J-249999D01*
G01*
X155281600Y-141192801D01*
G75*
G02*
X155031601Y-141442800I-249999J0D01*
G01*
G37*
G36*
G01*
X155031601Y-138342800D02*
X153781599Y-138342800D01*
G75*
G02*
X153531600Y-138092801I0J249999D01*
G01*
X153531600Y-137292799D01*
G75*
G02*
X153781599Y-137042800I249999J0D01*
G01*
X155031601Y-137042800D01*
G75*
G02*
X155281600Y-137292799I0J-249999D01*
G01*
X155281600Y-138092801D01*
G75*
G02*
X155031601Y-138342800I-249999J0D01*
G01*
G37*
G36*
G01*
X131003201Y-104687800D02*
X129753199Y-104687800D01*
G75*
G02*
X129503200Y-104437801I0J249999D01*
G01*
X129503200Y-103637799D01*
G75*
G02*
X129753199Y-103387800I249999J0D01*
G01*
X131003201Y-103387800D01*
G75*
G02*
X131253200Y-103637799I0J-249999D01*
G01*
X131253200Y-104437801D01*
G75*
G02*
X131003201Y-104687800I-249999J0D01*
G01*
G37*
G36*
G01*
X131003201Y-107787800D02*
X129753199Y-107787800D01*
G75*
G02*
X129503200Y-107537801I0J249999D01*
G01*
X129503200Y-106737799D01*
G75*
G02*
X129753199Y-106487800I249999J0D01*
G01*
X131003201Y-106487800D01*
G75*
G02*
X131253200Y-106737799I0J-249999D01*
G01*
X131253200Y-107537801D01*
G75*
G02*
X131003201Y-107787800I-249999J0D01*
G01*
G37*
G36*
G01*
X133467001Y-107762400D02*
X132216999Y-107762400D01*
G75*
G02*
X131967000Y-107512401I0J249999D01*
G01*
X131967000Y-106712399D01*
G75*
G02*
X132216999Y-106462400I249999J0D01*
G01*
X133467001Y-106462400D01*
G75*
G02*
X133717000Y-106712399I0J-249999D01*
G01*
X133717000Y-107512401D01*
G75*
G02*
X133467001Y-107762400I-249999J0D01*
G01*
G37*
G36*
G01*
X133467001Y-104662400D02*
X132216999Y-104662400D01*
G75*
G02*
X131967000Y-104412401I0J249999D01*
G01*
X131967000Y-103612399D01*
G75*
G02*
X132216999Y-103362400I249999J0D01*
G01*
X133467001Y-103362400D01*
G75*
G02*
X133717000Y-103612399I0J-249999D01*
G01*
X133717000Y-104412401D01*
G75*
G02*
X133467001Y-104662400I-249999J0D01*
G01*
G37*
G36*
G01*
X131130201Y-56554800D02*
X129880199Y-56554800D01*
G75*
G02*
X129630200Y-56304801I0J249999D01*
G01*
X129630200Y-55504799D01*
G75*
G02*
X129880199Y-55254800I249999J0D01*
G01*
X131130201Y-55254800D01*
G75*
G02*
X131380200Y-55504799I0J-249999D01*
G01*
X131380200Y-56304801D01*
G75*
G02*
X131130201Y-56554800I-249999J0D01*
G01*
G37*
G36*
G01*
X131130201Y-59654800D02*
X129880199Y-59654800D01*
G75*
G02*
X129630200Y-59404801I0J249999D01*
G01*
X129630200Y-58604799D01*
G75*
G02*
X129880199Y-58354800I249999J0D01*
G01*
X131130201Y-58354800D01*
G75*
G02*
X131380200Y-58604799I0J-249999D01*
G01*
X131380200Y-59404801D01*
G75*
G02*
X131130201Y-59654800I-249999J0D01*
G01*
G37*
G36*
G01*
X188661201Y-128361800D02*
X187411199Y-128361800D01*
G75*
G02*
X187161200Y-128111801I0J249999D01*
G01*
X187161200Y-127311799D01*
G75*
G02*
X187411199Y-127061800I249999J0D01*
G01*
X188661201Y-127061800D01*
G75*
G02*
X188911200Y-127311799I0J-249999D01*
G01*
X188911200Y-128111801D01*
G75*
G02*
X188661201Y-128361800I-249999J0D01*
G01*
G37*
G36*
G01*
X188661201Y-125261800D02*
X187411199Y-125261800D01*
G75*
G02*
X187161200Y-125011801I0J249999D01*
G01*
X187161200Y-124211799D01*
G75*
G02*
X187411199Y-123961800I249999J0D01*
G01*
X188661201Y-123961800D01*
G75*
G02*
X188911200Y-124211799I0J-249999D01*
G01*
X188911200Y-125011801D01*
G75*
G02*
X188661201Y-125261800I-249999J0D01*
G01*
G37*
G36*
G01*
X169250199Y-132750200D02*
X170500201Y-132750200D01*
G75*
G02*
X170750200Y-133000199I0J-249999D01*
G01*
X170750200Y-133800201D01*
G75*
G02*
X170500201Y-134050200I-249999J0D01*
G01*
X169250199Y-134050200D01*
G75*
G02*
X169000200Y-133800201I0J249999D01*
G01*
X169000200Y-133000199D01*
G75*
G02*
X169250199Y-132750200I249999J0D01*
G01*
G37*
G36*
G01*
X169250199Y-135850200D02*
X170500201Y-135850200D01*
G75*
G02*
X170750200Y-136100199I0J-249999D01*
G01*
X170750200Y-136900201D01*
G75*
G02*
X170500201Y-137150200I-249999J0D01*
G01*
X169250199Y-137150200D01*
G75*
G02*
X169000200Y-136900201I0J249999D01*
G01*
X169000200Y-136100199D01*
G75*
G02*
X169250199Y-135850200I249999J0D01*
G01*
G37*
G36*
G01*
X133080599Y-120355000D02*
X134330601Y-120355000D01*
G75*
G02*
X134580600Y-120604999I0J-249999D01*
G01*
X134580600Y-121405001D01*
G75*
G02*
X134330601Y-121655000I-249999J0D01*
G01*
X133080599Y-121655000D01*
G75*
G02*
X132830600Y-121405001I0J249999D01*
G01*
X132830600Y-120604999D01*
G75*
G02*
X133080599Y-120355000I249999J0D01*
G01*
G37*
G36*
G01*
X133080599Y-123455000D02*
X134330601Y-123455000D01*
G75*
G02*
X134580600Y-123704999I0J-249999D01*
G01*
X134580600Y-124505001D01*
G75*
G02*
X134330601Y-124755000I-249999J0D01*
G01*
X133080599Y-124755000D01*
G75*
G02*
X132830600Y-124505001I0J249999D01*
G01*
X132830600Y-123704999D01*
G75*
G02*
X133080599Y-123455000I249999J0D01*
G01*
G37*
G36*
G01*
X158328199Y-132521600D02*
X159578201Y-132521600D01*
G75*
G02*
X159828200Y-132771599I0J-249999D01*
G01*
X159828200Y-133571601D01*
G75*
G02*
X159578201Y-133821600I-249999J0D01*
G01*
X158328199Y-133821600D01*
G75*
G02*
X158078200Y-133571601I0J249999D01*
G01*
X158078200Y-132771599D01*
G75*
G02*
X158328199Y-132521600I249999J0D01*
G01*
G37*
G36*
G01*
X158328199Y-135621600D02*
X159578201Y-135621600D01*
G75*
G02*
X159828200Y-135871599I0J-249999D01*
G01*
X159828200Y-136671601D01*
G75*
G02*
X159578201Y-136921600I-249999J0D01*
G01*
X158328199Y-136921600D01*
G75*
G02*
X158078200Y-136671601I0J249999D01*
G01*
X158078200Y-135871599D01*
G75*
G02*
X158328199Y-135621600I249999J0D01*
G01*
G37*
G36*
G01*
X133187601Y-65622600D02*
X131937599Y-65622600D01*
G75*
G02*
X131687600Y-65372601I0J249999D01*
G01*
X131687600Y-64572599D01*
G75*
G02*
X131937599Y-64322600I249999J0D01*
G01*
X133187601Y-64322600D01*
G75*
G02*
X133437600Y-64572599I0J-249999D01*
G01*
X133437600Y-65372601D01*
G75*
G02*
X133187601Y-65622600I-249999J0D01*
G01*
G37*
G36*
G01*
X133187601Y-68722600D02*
X131937599Y-68722600D01*
G75*
G02*
X131687600Y-68472601I0J249999D01*
G01*
X131687600Y-67672599D01*
G75*
G02*
X131937599Y-67422600I249999J0D01*
G01*
X133187601Y-67422600D01*
G75*
G02*
X133437600Y-67672599I0J-249999D01*
G01*
X133437600Y-68472601D01*
G75*
G02*
X133187601Y-68722600I-249999J0D01*
G01*
G37*
G36*
G01*
X128760556Y-67106733D02*
X128135555Y-68189266D01*
G75*
G02*
X127794050Y-68280772I-216505J124999D01*
G01*
X127101227Y-67880771D01*
G75*
G02*
X127009722Y-67539267I125000J216505D01*
G01*
X127634723Y-66456734D01*
G75*
G02*
X127976228Y-66365228I216505J-124999D01*
G01*
X128669051Y-66765229D01*
G75*
G02*
X128760556Y-67106733I-125000J-216505D01*
G01*
G37*
G36*
G01*
X126075878Y-65556733D02*
X125450877Y-66639266D01*
G75*
G02*
X125109372Y-66730772I-216505J124999D01*
G01*
X124416549Y-66330771D01*
G75*
G02*
X124325044Y-65989267I125000J216505D01*
G01*
X124950045Y-64906734D01*
G75*
G02*
X125291550Y-64815228I216505J-124999D01*
G01*
X125984373Y-65215229D01*
G75*
G02*
X126075878Y-65556733I-125000J-216505D01*
G01*
G37*
G36*
G01*
X157108999Y-121346800D02*
X158359001Y-121346800D01*
G75*
G02*
X158609000Y-121596799I0J-249999D01*
G01*
X158609000Y-122396801D01*
G75*
G02*
X158359001Y-122646800I-249999J0D01*
G01*
X157108999Y-122646800D01*
G75*
G02*
X156859000Y-122396801I0J249999D01*
G01*
X156859000Y-121596799D01*
G75*
G02*
X157108999Y-121346800I249999J0D01*
G01*
G37*
G36*
G01*
X157108999Y-118246800D02*
X158359001Y-118246800D01*
G75*
G02*
X158609000Y-118496799I0J-249999D01*
G01*
X158609000Y-119296801D01*
G75*
G02*
X158359001Y-119546800I-249999J0D01*
G01*
X157108999Y-119546800D01*
G75*
G02*
X156859000Y-119296801I0J249999D01*
G01*
X156859000Y-118496799D01*
G75*
G02*
X157108999Y-118246800I249999J0D01*
G01*
G37*
G36*
G01*
X155565001Y-122646800D02*
X154314999Y-122646800D01*
G75*
G02*
X154065000Y-122396801I0J249999D01*
G01*
X154065000Y-121596799D01*
G75*
G02*
X154314999Y-121346800I249999J0D01*
G01*
X155565001Y-121346800D01*
G75*
G02*
X155815000Y-121596799I0J-249999D01*
G01*
X155815000Y-122396801D01*
G75*
G02*
X155565001Y-122646800I-249999J0D01*
G01*
G37*
G36*
G01*
X155565001Y-119546800D02*
X154314999Y-119546800D01*
G75*
G02*
X154065000Y-119296801I0J249999D01*
G01*
X154065000Y-118496799D01*
G75*
G02*
X154314999Y-118246800I249999J0D01*
G01*
X155565001Y-118246800D01*
G75*
G02*
X155815000Y-118496799I0J-249999D01*
G01*
X155815000Y-119296801D01*
G75*
G02*
X155565001Y-119546800I-249999J0D01*
G01*
G37*
G36*
G01*
X190307197Y-65745400D02*
X191607203Y-65745400D01*
G75*
G02*
X191857200Y-65995397I0J-249997D01*
G01*
X191857200Y-66820403D01*
G75*
G02*
X191607203Y-67070400I-249997J0D01*
G01*
X190307197Y-67070400D01*
G75*
G02*
X190057200Y-66820403I0J249997D01*
G01*
X190057200Y-65995397D01*
G75*
G02*
X190307197Y-65745400I249997J0D01*
G01*
G37*
G36*
G01*
X190307197Y-68870400D02*
X191607203Y-68870400D01*
G75*
G02*
X191857200Y-69120397I0J-249997D01*
G01*
X191857200Y-69945403D01*
G75*
G02*
X191607203Y-70195400I-249997J0D01*
G01*
X190307197Y-70195400D01*
G75*
G02*
X190057200Y-69945403I0J249997D01*
G01*
X190057200Y-69120397D01*
G75*
G02*
X190307197Y-68870400I249997J0D01*
G01*
G37*
G36*
G01*
X135087400Y-108523803D02*
X135087400Y-107223797D01*
G75*
G02*
X135337397Y-106973800I249997J0D01*
G01*
X136162403Y-106973800D01*
G75*
G02*
X136412400Y-107223797I0J-249997D01*
G01*
X136412400Y-108523803D01*
G75*
G02*
X136162403Y-108773800I-249997J0D01*
G01*
X135337397Y-108773800D01*
G75*
G02*
X135087400Y-108523803I0J249997D01*
G01*
G37*
G36*
G01*
X138212400Y-108523803D02*
X138212400Y-107223797D01*
G75*
G02*
X138462397Y-106973800I249997J0D01*
G01*
X139287403Y-106973800D01*
G75*
G02*
X139537400Y-107223797I0J-249997D01*
G01*
X139537400Y-108523803D01*
G75*
G02*
X139287403Y-108773800I-249997J0D01*
G01*
X138462397Y-108773800D01*
G75*
G02*
X138212400Y-108523803I0J249997D01*
G01*
G37*
G36*
G01*
X138212400Y-106161603D02*
X138212400Y-104861597D01*
G75*
G02*
X138462397Y-104611600I249997J0D01*
G01*
X139287403Y-104611600D01*
G75*
G02*
X139537400Y-104861597I0J-249997D01*
G01*
X139537400Y-106161603D01*
G75*
G02*
X139287403Y-106411600I-249997J0D01*
G01*
X138462397Y-106411600D01*
G75*
G02*
X138212400Y-106161603I0J249997D01*
G01*
G37*
G36*
G01*
X135087400Y-106161603D02*
X135087400Y-104861597D01*
G75*
G02*
X135337397Y-104611600I249997J0D01*
G01*
X136162403Y-104611600D01*
G75*
G02*
X136412400Y-104861597I0J-249997D01*
G01*
X136412400Y-106161603D01*
G75*
G02*
X136162403Y-106411600I-249997J0D01*
G01*
X135337397Y-106411600D01*
G75*
G02*
X135087400Y-106161603I0J249997D01*
G01*
G37*
G36*
G01*
X137304600Y-99495200D02*
X137604600Y-99495200D01*
G75*
G02*
X137754600Y-99645200I0J-150000D01*
G01*
X137754600Y-100670200D01*
G75*
G02*
X137604600Y-100820200I-150000J0D01*
G01*
X137304600Y-100820200D01*
G75*
G02*
X137154600Y-100670200I0J150000D01*
G01*
X137154600Y-99645200D01*
G75*
G02*
X137304600Y-99495200I150000J0D01*
G01*
G37*
G36*
G01*
X138254600Y-99495200D02*
X138554600Y-99495200D01*
G75*
G02*
X138704600Y-99645200I0J-150000D01*
G01*
X138704600Y-100670200D01*
G75*
G02*
X138554600Y-100820200I-150000J0D01*
G01*
X138254600Y-100820200D01*
G75*
G02*
X138104600Y-100670200I0J150000D01*
G01*
X138104600Y-99645200D01*
G75*
G02*
X138254600Y-99495200I150000J0D01*
G01*
G37*
G36*
G01*
X139204600Y-99495200D02*
X139504600Y-99495200D01*
G75*
G02*
X139654600Y-99645200I0J-150000D01*
G01*
X139654600Y-100670200D01*
G75*
G02*
X139504600Y-100820200I-150000J0D01*
G01*
X139204600Y-100820200D01*
G75*
G02*
X139054600Y-100670200I0J150000D01*
G01*
X139054600Y-99645200D01*
G75*
G02*
X139204600Y-99495200I150000J0D01*
G01*
G37*
G36*
G01*
X139204600Y-101770200D02*
X139504600Y-101770200D01*
G75*
G02*
X139654600Y-101920200I0J-150000D01*
G01*
X139654600Y-102945200D01*
G75*
G02*
X139504600Y-103095200I-150000J0D01*
G01*
X139204600Y-103095200D01*
G75*
G02*
X139054600Y-102945200I0J150000D01*
G01*
X139054600Y-101920200D01*
G75*
G02*
X139204600Y-101770200I150000J0D01*
G01*
G37*
G36*
G01*
X137304600Y-101770200D02*
X137604600Y-101770200D01*
G75*
G02*
X137754600Y-101920200I0J-150000D01*
G01*
X137754600Y-102945200D01*
G75*
G02*
X137604600Y-103095200I-150000J0D01*
G01*
X137304600Y-103095200D01*
G75*
G02*
X137154600Y-102945200I0J150000D01*
G01*
X137154600Y-101920200D01*
G75*
G02*
X137304600Y-101770200I150000J0D01*
G01*
G37*
G36*
G01*
X134757397Y-99515100D02*
X136057403Y-99515100D01*
G75*
G02*
X136307400Y-99765097I0J-249997D01*
G01*
X136307400Y-100590103D01*
G75*
G02*
X136057403Y-100840100I-249997J0D01*
G01*
X134757397Y-100840100D01*
G75*
G02*
X134507400Y-100590103I0J249997D01*
G01*
X134507400Y-99765097D01*
G75*
G02*
X134757397Y-99515100I249997J0D01*
G01*
G37*
G36*
G01*
X134757397Y-102640100D02*
X136057403Y-102640100D01*
G75*
G02*
X136307400Y-102890097I0J-249997D01*
G01*
X136307400Y-103715103D01*
G75*
G02*
X136057403Y-103965100I-249997J0D01*
G01*
X134757397Y-103965100D01*
G75*
G02*
X134507400Y-103715103I0J249997D01*
G01*
X134507400Y-102890097D01*
G75*
G02*
X134757397Y-102640100I249997J0D01*
G01*
G37*
G36*
G01*
X138187000Y-110936803D02*
X138187000Y-109636797D01*
G75*
G02*
X138436997Y-109386800I249997J0D01*
G01*
X139262003Y-109386800D01*
G75*
G02*
X139512000Y-109636797I0J-249997D01*
G01*
X139512000Y-110936803D01*
G75*
G02*
X139262003Y-111186800I-249997J0D01*
G01*
X138436997Y-111186800D01*
G75*
G02*
X138187000Y-110936803I0J249997D01*
G01*
G37*
G36*
G01*
X135062000Y-110936803D02*
X135062000Y-109636797D01*
G75*
G02*
X135311997Y-109386800I249997J0D01*
G01*
X136137003Y-109386800D01*
G75*
G02*
X136387000Y-109636797I0J-249997D01*
G01*
X136387000Y-110936803D01*
G75*
G02*
X136137003Y-111186800I-249997J0D01*
G01*
X135311997Y-111186800D01*
G75*
G02*
X135062000Y-110936803I0J249997D01*
G01*
G37*
G36*
G01*
X178496000Y-135473203D02*
X178496000Y-134173197D01*
G75*
G02*
X178745997Y-133923200I249997J0D01*
G01*
X179571003Y-133923200D01*
G75*
G02*
X179821000Y-134173197I0J-249997D01*
G01*
X179821000Y-135473203D01*
G75*
G02*
X179571003Y-135723200I-249997J0D01*
G01*
X178745997Y-135723200D01*
G75*
G02*
X178496000Y-135473203I0J249997D01*
G01*
G37*
G36*
G01*
X181621000Y-135473203D02*
X181621000Y-134173197D01*
G75*
G02*
X181870997Y-133923200I249997J0D01*
G01*
X182696003Y-133923200D01*
G75*
G02*
X182946000Y-134173197I0J-249997D01*
G01*
X182946000Y-135473203D01*
G75*
G02*
X182696003Y-135723200I-249997J0D01*
G01*
X181870997Y-135723200D01*
G75*
G02*
X181621000Y-135473203I0J249997D01*
G01*
G37*
G36*
G01*
X179898400Y-124114399D02*
X179898400Y-125364401D01*
G75*
G02*
X179648401Y-125614400I-249999J0D01*
G01*
X178848399Y-125614400D01*
G75*
G02*
X178598400Y-125364401I0J249999D01*
G01*
X178598400Y-124114399D01*
G75*
G02*
X178848399Y-123864400I249999J0D01*
G01*
X179648401Y-123864400D01*
G75*
G02*
X179898400Y-124114399I0J-249999D01*
G01*
G37*
G36*
G01*
X176798400Y-124114399D02*
X176798400Y-125364401D01*
G75*
G02*
X176548401Y-125614400I-249999J0D01*
G01*
X175748399Y-125614400D01*
G75*
G02*
X175498400Y-125364401I0J249999D01*
G01*
X175498400Y-124114399D01*
G75*
G02*
X175748399Y-123864400I249999J0D01*
G01*
X176548401Y-123864400D01*
G75*
G02*
X176798400Y-124114399I0J-249999D01*
G01*
G37*
G36*
G01*
X194045603Y-70195400D02*
X192745597Y-70195400D01*
G75*
G02*
X192495600Y-69945403I0J249997D01*
G01*
X192495600Y-69120397D01*
G75*
G02*
X192745597Y-68870400I249997J0D01*
G01*
X194045603Y-68870400D01*
G75*
G02*
X194295600Y-69120397I0J-249997D01*
G01*
X194295600Y-69945403D01*
G75*
G02*
X194045603Y-70195400I-249997J0D01*
G01*
G37*
G36*
G01*
X194045603Y-67070400D02*
X192745597Y-67070400D01*
G75*
G02*
X192495600Y-66820403I0J249997D01*
G01*
X192495600Y-65995397D01*
G75*
G02*
X192745597Y-65745400I249997J0D01*
G01*
X194045603Y-65745400D01*
G75*
G02*
X194295600Y-65995397I0J-249997D01*
G01*
X194295600Y-66820403D01*
G75*
G02*
X194045603Y-67070400I-249997J0D01*
G01*
G37*
G36*
G01*
X139989400Y-133969400D02*
X141239400Y-133969400D01*
G75*
G02*
X141489400Y-134219400I0J-250000D01*
G01*
X141489400Y-135144400D01*
G75*
G02*
X141239400Y-135394400I-250000J0D01*
G01*
X139989400Y-135394400D01*
G75*
G02*
X139739400Y-135144400I0J250000D01*
G01*
X139739400Y-134219400D01*
G75*
G02*
X139989400Y-133969400I250000J0D01*
G01*
G37*
G36*
G01*
X139989400Y-136944400D02*
X141239400Y-136944400D01*
G75*
G02*
X141489400Y-137194400I0J-250000D01*
G01*
X141489400Y-138119400D01*
G75*
G02*
X141239400Y-138369400I-250000J0D01*
G01*
X139989400Y-138369400D01*
G75*
G02*
X139739400Y-138119400I0J250000D01*
G01*
X139739400Y-137194400D01*
G75*
G02*
X139989400Y-136944400I250000J0D01*
G01*
G37*
G36*
G01*
X142770500Y-138648203D02*
X142770500Y-137348197D01*
G75*
G02*
X143020497Y-137098200I249997J0D01*
G01*
X143845503Y-137098200D01*
G75*
G02*
X144095500Y-137348197I0J-249997D01*
G01*
X144095500Y-138648203D01*
G75*
G02*
X143845503Y-138898200I-249997J0D01*
G01*
X143020497Y-138898200D01*
G75*
G02*
X142770500Y-138648203I0J249997D01*
G01*
G37*
G36*
G01*
X145895500Y-138648203D02*
X145895500Y-137348197D01*
G75*
G02*
X146145497Y-137098200I249997J0D01*
G01*
X146970503Y-137098200D01*
G75*
G02*
X147220500Y-137348197I0J-249997D01*
G01*
X147220500Y-138648203D01*
G75*
G02*
X146970503Y-138898200I-249997J0D01*
G01*
X146145497Y-138898200D01*
G75*
G02*
X145895500Y-138648203I0J249997D01*
G01*
G37*
G36*
G01*
X187441000Y-134655797D02*
X187441000Y-135955803D01*
G75*
G02*
X187191003Y-136205800I-249997J0D01*
G01*
X186365997Y-136205800D01*
G75*
G02*
X186116000Y-135955803I0J249997D01*
G01*
X186116000Y-134655797D01*
G75*
G02*
X186365997Y-134405800I249997J0D01*
G01*
X187191003Y-134405800D01*
G75*
G02*
X187441000Y-134655797I0J-249997D01*
G01*
G37*
G36*
G01*
X190566000Y-134655797D02*
X190566000Y-135955803D01*
G75*
G02*
X190316003Y-136205800I-249997J0D01*
G01*
X189490997Y-136205800D01*
G75*
G02*
X189241000Y-135955803I0J249997D01*
G01*
X189241000Y-134655797D01*
G75*
G02*
X189490997Y-134405800I249997J0D01*
G01*
X190316003Y-134405800D01*
G75*
G02*
X190566000Y-134655797I0J-249997D01*
G01*
G37*
G36*
G01*
X132958603Y-136235400D02*
X131658597Y-136235400D01*
G75*
G02*
X131408600Y-135985403I0J249997D01*
G01*
X131408600Y-135160397D01*
G75*
G02*
X131658597Y-134910400I249997J0D01*
G01*
X132958603Y-134910400D01*
G75*
G02*
X133208600Y-135160397I0J-249997D01*
G01*
X133208600Y-135985403D01*
G75*
G02*
X132958603Y-136235400I-249997J0D01*
G01*
G37*
G36*
G01*
X132958603Y-133110400D02*
X131658597Y-133110400D01*
G75*
G02*
X131408600Y-132860403I0J249997D01*
G01*
X131408600Y-132035397D01*
G75*
G02*
X131658597Y-131785400I249997J0D01*
G01*
X132958603Y-131785400D01*
G75*
G02*
X133208600Y-132035397I0J-249997D01*
G01*
X133208600Y-132860403D01*
G75*
G02*
X132958603Y-133110400I-249997J0D01*
G01*
G37*
G36*
G01*
X174487603Y-136818800D02*
X173187597Y-136818800D01*
G75*
G02*
X172937600Y-136568803I0J249997D01*
G01*
X172937600Y-135743797D01*
G75*
G02*
X173187597Y-135493800I249997J0D01*
G01*
X174487603Y-135493800D01*
G75*
G02*
X174737600Y-135743797I0J-249997D01*
G01*
X174737600Y-136568803D01*
G75*
G02*
X174487603Y-136818800I-249997J0D01*
G01*
G37*
G36*
G01*
X174487603Y-139943800D02*
X173187597Y-139943800D01*
G75*
G02*
X172937600Y-139693803I0J249997D01*
G01*
X172937600Y-138868797D01*
G75*
G02*
X173187597Y-138618800I249997J0D01*
G01*
X174487603Y-138618800D01*
G75*
G02*
X174737600Y-138868797I0J-249997D01*
G01*
X174737600Y-139693803D01*
G75*
G02*
X174487603Y-139943800I-249997J0D01*
G01*
G37*
D10*
X133588800Y-63204600D03*
X131688800Y-63204600D03*
X132638800Y-61204600D03*
G36*
G01*
X163853099Y-94791100D02*
X165153101Y-94791100D01*
G75*
G02*
X165403100Y-95041099I0J-249999D01*
G01*
X165403100Y-95866101D01*
G75*
G02*
X165153101Y-96116100I-249999J0D01*
G01*
X163853099Y-96116100D01*
G75*
G02*
X163603100Y-95866101I0J249999D01*
G01*
X163603100Y-95041099D01*
G75*
G02*
X163853099Y-94791100I249999J0D01*
G01*
G37*
G36*
G01*
X163853099Y-91666100D02*
X165153101Y-91666100D01*
G75*
G02*
X165403100Y-91916099I0J-249999D01*
G01*
X165403100Y-92741101D01*
G75*
G02*
X165153101Y-92991100I-249999J0D01*
G01*
X163853099Y-92991100D01*
G75*
G02*
X163603100Y-92741101I0J249999D01*
G01*
X163603100Y-91916099D01*
G75*
G02*
X163853099Y-91666100I249999J0D01*
G01*
G37*
G36*
G01*
X162346401Y-96281200D02*
X161046399Y-96281200D01*
G75*
G02*
X160796400Y-96031201I0J249999D01*
G01*
X160796400Y-95206199D01*
G75*
G02*
X161046399Y-94956200I249999J0D01*
G01*
X162346401Y-94956200D01*
G75*
G02*
X162596400Y-95206199I0J-249999D01*
G01*
X162596400Y-96031201D01*
G75*
G02*
X162346401Y-96281200I-249999J0D01*
G01*
G37*
G36*
G01*
X162346401Y-93156200D02*
X161046399Y-93156200D01*
G75*
G02*
X160796400Y-92906201I0J249999D01*
G01*
X160796400Y-92081199D01*
G75*
G02*
X161046399Y-91831200I249999J0D01*
G01*
X162346401Y-91831200D01*
G75*
G02*
X162596400Y-92081199I0J-249999D01*
G01*
X162596400Y-92906201D01*
G75*
G02*
X162346401Y-93156200I-249999J0D01*
G01*
G37*
G36*
G01*
X168416032Y-89327892D02*
X167496792Y-90247132D01*
G75*
G02*
X167143240Y-90247132I-176776J176776D01*
G01*
X166559876Y-89663768D01*
G75*
G02*
X166559876Y-89310216I176776J176776D01*
G01*
X167479116Y-88390976D01*
G75*
G02*
X167832668Y-88390976I176776J-176776D01*
G01*
X168416032Y-88974340D01*
G75*
G02*
X168416032Y-89327892I-176776J-176776D01*
G01*
G37*
G36*
G01*
X166206324Y-87118184D02*
X165287084Y-88037424D01*
G75*
G02*
X164933532Y-88037424I-176776J176776D01*
G01*
X164350168Y-87454060D01*
G75*
G02*
X164350168Y-87100508I176776J176776D01*
G01*
X165269408Y-86181268D01*
G75*
G02*
X165622960Y-86181268I176776J-176776D01*
G01*
X166206324Y-86764632D01*
G75*
G02*
X166206324Y-87118184I-176776J-176776D01*
G01*
G37*
D11*
X161455000Y-85300600D03*
X161455000Y-86715600D03*
X161455000Y-87985600D03*
X161455000Y-89400600D03*
D12*
X160020000Y-89735600D03*
D11*
X158585000Y-89400600D03*
X158585000Y-87985600D03*
X158585000Y-86715600D03*
X158585000Y-85300600D03*
D12*
X160020000Y-84965600D03*
G36*
G01*
X159248000Y-96662600D02*
X157998000Y-96662600D01*
G75*
G02*
X157748000Y-96412600I0J250000D01*
G01*
X157748000Y-95612600D01*
G75*
G02*
X157998000Y-95362600I250000J0D01*
G01*
X159248000Y-95362600D01*
G75*
G02*
X159498000Y-95612600I0J-250000D01*
G01*
X159498000Y-96412600D01*
G75*
G02*
X159248000Y-96662600I-250000J0D01*
G01*
G37*
G36*
G01*
X159248000Y-93562600D02*
X157998000Y-93562600D01*
G75*
G02*
X157748000Y-93312600I0J250000D01*
G01*
X157748000Y-92512600D01*
G75*
G02*
X157998000Y-92262600I250000J0D01*
G01*
X159248000Y-92262600D01*
G75*
G02*
X159498000Y-92512600I0J-250000D01*
G01*
X159498000Y-93312600D01*
G75*
G02*
X159248000Y-93562600I-250000J0D01*
G01*
G37*
G36*
G01*
X169770900Y-88008100D02*
X171020900Y-88008100D01*
G75*
G02*
X171270900Y-88258100I0J-250000D01*
G01*
X171270900Y-89183100D01*
G75*
G02*
X171020900Y-89433100I-250000J0D01*
G01*
X169770900Y-89433100D01*
G75*
G02*
X169520900Y-89183100I0J250000D01*
G01*
X169520900Y-88258100D01*
G75*
G02*
X169770900Y-88008100I250000J0D01*
G01*
G37*
G36*
G01*
X169770900Y-90983100D02*
X171020900Y-90983100D01*
G75*
G02*
X171270900Y-91233100I0J-250000D01*
G01*
X171270900Y-92158100D01*
G75*
G02*
X171020900Y-92408100I-250000J0D01*
G01*
X169770900Y-92408100D01*
G75*
G02*
X169520900Y-92158100I0J250000D01*
G01*
X169520900Y-91233100D01*
G75*
G02*
X169770900Y-90983100I250000J0D01*
G01*
G37*
D10*
X192242400Y-110480600D03*
X194142400Y-110480600D03*
X193192400Y-112480600D03*
G36*
G01*
X192364200Y-104327600D02*
X193614200Y-104327600D01*
G75*
G02*
X193864200Y-104577600I0J-250000D01*
G01*
X193864200Y-105377600D01*
G75*
G02*
X193614200Y-105627600I-250000J0D01*
G01*
X192364200Y-105627600D01*
G75*
G02*
X192114200Y-105377600I0J250000D01*
G01*
X192114200Y-104577600D01*
G75*
G02*
X192364200Y-104327600I250000J0D01*
G01*
G37*
G36*
G01*
X192364200Y-107427600D02*
X193614200Y-107427600D01*
G75*
G02*
X193864200Y-107677600I0J-250000D01*
G01*
X193864200Y-108477600D01*
G75*
G02*
X193614200Y-108727600I-250000J0D01*
G01*
X192364200Y-108727600D01*
G75*
G02*
X192114200Y-108477600I0J250000D01*
G01*
X192114200Y-107677600D01*
G75*
G02*
X192364200Y-107427600I250000J0D01*
G01*
G37*
M02*
