G04 #@! TF.GenerationSoftware,KiCad,Pcbnew,(5.1.12-1-10_14)*
G04 #@! TF.CreationDate,2023-04-25T20:34:31-07:00*
G04 #@! TF.ProjectId,bloo,626c6f6f-2e6b-4696-9361-645f70636258,rev?*
G04 #@! TF.SameCoordinates,Original*
G04 #@! TF.FileFunction,Legend,Bot*
G04 #@! TF.FilePolarity,Positive*
%FSLAX46Y46*%
G04 Gerber Fmt 4.6, Leading zero omitted, Abs format (unit mm)*
G04 Created by KiCad (PCBNEW (5.1.12-1-10_14)) date 2023-04-25 20:34:31*
%MOMM*%
%LPD*%
G01*
G04 APERTURE LIST*
%ADD10C,0.200000*%
%ADD11C,0.300000*%
%ADD12C,0.120000*%
%ADD13C,0.150000*%
%ADD14C,0.093260*%
%ADD15O,2.100000X2.100000*%
%ADD16C,2.600000*%
%ADD17C,2.400000*%
%ADD18C,2.000000*%
%ADD19O,1.400000X1.400000*%
%ADD20C,3.400000*%
%ADD21O,2.000000X2.000000*%
%ADD22C,2.584400*%
%ADD23C,2.200000*%
%ADD24C,1.924000*%
%ADD25C,2.100000*%
G04 APERTURE END LIST*
D10*
X130810619Y-102767804D02*
X130001095Y-102767804D01*
X129905857Y-102720185D01*
X129858238Y-102672566D01*
X129810619Y-102577328D01*
X129810619Y-102386852D01*
X129858238Y-102291614D01*
X129905857Y-102243995D01*
X130001095Y-102196376D01*
X130810619Y-102196376D01*
X129858238Y-101767804D02*
X129810619Y-101672566D01*
X129810619Y-101482090D01*
X129858238Y-101386852D01*
X129953476Y-101339233D01*
X130001095Y-101339233D01*
X130096333Y-101386852D01*
X130143952Y-101482090D01*
X130143952Y-101624947D01*
X130191571Y-101720185D01*
X130286809Y-101767804D01*
X130334428Y-101767804D01*
X130429666Y-101720185D01*
X130477285Y-101624947D01*
X130477285Y-101482090D01*
X130429666Y-101386852D01*
X129858238Y-100529709D02*
X129810619Y-100624947D01*
X129810619Y-100815423D01*
X129858238Y-100910661D01*
X129953476Y-100958280D01*
X130334428Y-100958280D01*
X130429666Y-100910661D01*
X130477285Y-100815423D01*
X130477285Y-100624947D01*
X130429666Y-100529709D01*
X130334428Y-100482090D01*
X130239190Y-100482090D01*
X130143952Y-100958280D01*
X129810619Y-100053519D02*
X130477285Y-100053519D01*
X130286809Y-100053519D02*
X130382047Y-100005900D01*
X130429666Y-99958280D01*
X130477285Y-99863042D01*
X130477285Y-99767804D01*
X129858238Y-98720185D02*
X129810619Y-98577328D01*
X129810619Y-98339233D01*
X129858238Y-98243995D01*
X129905857Y-98196376D01*
X130001095Y-98148757D01*
X130096333Y-98148757D01*
X130191571Y-98196376D01*
X130239190Y-98243995D01*
X130286809Y-98339233D01*
X130334428Y-98529709D01*
X130382047Y-98624947D01*
X130429666Y-98672566D01*
X130524904Y-98720185D01*
X130620142Y-98720185D01*
X130715380Y-98672566D01*
X130763000Y-98624947D01*
X130810619Y-98529709D01*
X130810619Y-98291614D01*
X130763000Y-98148757D01*
X130477285Y-97720185D02*
X129477285Y-97720185D01*
X130429666Y-97720185D02*
X130477285Y-97624947D01*
X130477285Y-97434471D01*
X130429666Y-97339233D01*
X130382047Y-97291614D01*
X130286809Y-97243995D01*
X130001095Y-97243995D01*
X129905857Y-97291614D01*
X129858238Y-97339233D01*
X129810619Y-97434471D01*
X129810619Y-97624947D01*
X129858238Y-97720185D01*
X129810619Y-96386852D02*
X130334428Y-96386852D01*
X130429666Y-96434471D01*
X130477285Y-96529709D01*
X130477285Y-96720185D01*
X130429666Y-96815423D01*
X129858238Y-96386852D02*
X129810619Y-96482090D01*
X129810619Y-96720185D01*
X129858238Y-96815423D01*
X129953476Y-96863042D01*
X130048714Y-96863042D01*
X130143952Y-96815423D01*
X130191571Y-96720185D01*
X130191571Y-96482090D01*
X130239190Y-96386852D01*
X129858238Y-95482090D02*
X129810619Y-95577328D01*
X129810619Y-95767804D01*
X129858238Y-95863042D01*
X129905857Y-95910661D01*
X130001095Y-95958280D01*
X130286809Y-95958280D01*
X130382047Y-95910661D01*
X130429666Y-95863042D01*
X130477285Y-95767804D01*
X130477285Y-95577328D01*
X130429666Y-95482090D01*
X129858238Y-94672566D02*
X129810619Y-94767804D01*
X129810619Y-94958280D01*
X129858238Y-95053519D01*
X129953476Y-95101138D01*
X130334428Y-95101138D01*
X130429666Y-95053519D01*
X130477285Y-94958280D01*
X130477285Y-94767804D01*
X130429666Y-94672566D01*
X130334428Y-94624947D01*
X130239190Y-94624947D01*
X130143952Y-95101138D01*
X129810619Y-94196376D02*
X130477285Y-94196376D01*
X130286809Y-94196376D02*
X130382047Y-94148757D01*
X130429666Y-94101138D01*
X130477285Y-94005900D01*
X130477285Y-93910661D01*
X129858238Y-93624947D02*
X129810619Y-93529709D01*
X129810619Y-93339233D01*
X129858238Y-93243995D01*
X129953476Y-93196376D01*
X130001095Y-93196376D01*
X130096333Y-93243995D01*
X130143952Y-93339233D01*
X130143952Y-93482090D01*
X130191571Y-93577328D01*
X130286809Y-93624947D01*
X130334428Y-93624947D01*
X130429666Y-93577328D01*
X130477285Y-93482090D01*
X130477285Y-93339233D01*
X130429666Y-93243995D01*
X128634428Y-101172566D02*
X128634428Y-101505900D01*
X128110619Y-101505900D02*
X129110619Y-101505900D01*
X129110619Y-101029709D01*
X128110619Y-100505900D02*
X128158238Y-100601138D01*
X128205857Y-100648757D01*
X128301095Y-100696376D01*
X128586809Y-100696376D01*
X128682047Y-100648757D01*
X128729666Y-100601138D01*
X128777285Y-100505900D01*
X128777285Y-100363042D01*
X128729666Y-100267804D01*
X128682047Y-100220185D01*
X128586809Y-100172566D01*
X128301095Y-100172566D01*
X128205857Y-100220185D01*
X128158238Y-100267804D01*
X128110619Y-100363042D01*
X128110619Y-100505900D01*
X128110619Y-99743995D02*
X128777285Y-99743995D01*
X128586809Y-99743995D02*
X128682047Y-99696376D01*
X128729666Y-99648757D01*
X128777285Y-99553519D01*
X128777285Y-99458280D01*
X128158238Y-98410661D02*
X128110619Y-98267804D01*
X128110619Y-98029709D01*
X128158238Y-97934471D01*
X128205857Y-97886852D01*
X128301095Y-97839233D01*
X128396333Y-97839233D01*
X128491571Y-97886852D01*
X128539190Y-97934471D01*
X128586809Y-98029709D01*
X128634428Y-98220185D01*
X128682047Y-98315423D01*
X128729666Y-98363042D01*
X128824904Y-98410661D01*
X128920142Y-98410661D01*
X129015380Y-98363042D01*
X129063000Y-98315423D01*
X129110619Y-98220185D01*
X129110619Y-97982090D01*
X129063000Y-97839233D01*
X128158238Y-96982090D02*
X128110619Y-97077328D01*
X128110619Y-97267804D01*
X128158238Y-97363042D01*
X128205857Y-97410661D01*
X128301095Y-97458280D01*
X128586809Y-97458280D01*
X128682047Y-97410661D01*
X128729666Y-97363042D01*
X128777285Y-97267804D01*
X128777285Y-97077328D01*
X128729666Y-96982090D01*
X128110619Y-96553519D02*
X128777285Y-96553519D01*
X128586809Y-96553519D02*
X128682047Y-96505900D01*
X128729666Y-96458280D01*
X128777285Y-96363042D01*
X128777285Y-96267804D01*
X128158238Y-95553519D02*
X128110619Y-95648757D01*
X128110619Y-95839233D01*
X128158238Y-95934471D01*
X128253476Y-95982090D01*
X128634428Y-95982090D01*
X128729666Y-95934471D01*
X128777285Y-95839233D01*
X128777285Y-95648757D01*
X128729666Y-95553519D01*
X128634428Y-95505900D01*
X128539190Y-95505900D01*
X128443952Y-95982090D01*
X128777285Y-95172566D02*
X128110619Y-94982090D01*
X128586809Y-94791614D01*
X128110619Y-94601138D01*
X128777285Y-94410661D01*
D11*
X152685028Y-103853828D02*
X152685028Y-102782400D01*
X152613600Y-102568114D01*
X152470742Y-102425257D01*
X152256457Y-102353828D01*
X152113600Y-102353828D01*
X153613600Y-102353828D02*
X153470742Y-102425257D01*
X153399314Y-102496685D01*
X153327885Y-102639542D01*
X153327885Y-103068114D01*
X153399314Y-103210971D01*
X153470742Y-103282400D01*
X153613600Y-103353828D01*
X153827885Y-103353828D01*
X153970742Y-103282400D01*
X154042171Y-103210971D01*
X154113600Y-103068114D01*
X154113600Y-102639542D01*
X154042171Y-102496685D01*
X153970742Y-102425257D01*
X153827885Y-102353828D01*
X153613600Y-102353828D01*
X154756457Y-103353828D02*
X154756457Y-102353828D01*
X154756457Y-103210971D02*
X154827885Y-103282400D01*
X154970742Y-103353828D01*
X155185028Y-103353828D01*
X155327885Y-103282400D01*
X155399314Y-103139542D01*
X155399314Y-102353828D01*
X156756457Y-102353828D02*
X156756457Y-103139542D01*
X156685028Y-103282400D01*
X156542171Y-103353828D01*
X156256457Y-103353828D01*
X156113599Y-103282400D01*
X156756457Y-102425257D02*
X156613599Y-102353828D01*
X156256457Y-102353828D01*
X156113599Y-102425257D01*
X156042171Y-102568114D01*
X156042171Y-102710971D01*
X156113599Y-102853828D01*
X156256457Y-102925257D01*
X156613599Y-102925257D01*
X156756457Y-102996685D01*
X157256457Y-103353828D02*
X157827885Y-103353828D01*
X157470742Y-103853828D02*
X157470742Y-102568114D01*
X157542171Y-102425257D01*
X157685028Y-102353828D01*
X157827885Y-102353828D01*
X158327885Y-102353828D02*
X158327885Y-103853828D01*
X158970742Y-102353828D02*
X158970742Y-103139542D01*
X158899314Y-103282400D01*
X158756457Y-103353828D01*
X158542171Y-103353828D01*
X158399314Y-103282400D01*
X158327885Y-103210971D01*
X160327885Y-102353828D02*
X160327885Y-103139542D01*
X160256457Y-103282400D01*
X160113599Y-103353828D01*
X159827885Y-103353828D01*
X159685028Y-103282400D01*
X160327885Y-102425257D02*
X160185028Y-102353828D01*
X159827885Y-102353828D01*
X159685028Y-102425257D01*
X159613599Y-102568114D01*
X159613599Y-102710971D01*
X159685028Y-102853828D01*
X159827885Y-102925257D01*
X160185028Y-102925257D01*
X160327885Y-102996685D01*
X161042171Y-103353828D02*
X161042171Y-102353828D01*
X161042171Y-103210971D02*
X161113599Y-103282400D01*
X161256457Y-103353828D01*
X161470742Y-103353828D01*
X161613599Y-103282400D01*
X161685028Y-103139542D01*
X161685028Y-102353828D01*
X164256457Y-102353828D02*
X163542171Y-102353828D01*
X163542171Y-103853828D01*
X164970742Y-102353828D02*
X164827885Y-102425257D01*
X164756457Y-102496685D01*
X164685028Y-102639542D01*
X164685028Y-103068114D01*
X164756457Y-103210971D01*
X164827885Y-103282400D01*
X164970742Y-103353828D01*
X165185028Y-103353828D01*
X165327885Y-103282400D01*
X165399314Y-103210971D01*
X165470742Y-103068114D01*
X165470742Y-102639542D01*
X165399314Y-102496685D01*
X165327885Y-102425257D01*
X165185028Y-102353828D01*
X164970742Y-102353828D01*
X165970742Y-103353828D02*
X166256457Y-102353828D01*
X166542171Y-103068114D01*
X166827885Y-102353828D01*
X167113599Y-103353828D01*
X157470742Y-100803828D02*
X157827885Y-99803828D01*
X158185028Y-100803828D01*
X159042171Y-101303828D02*
X159185028Y-101303828D01*
X159327885Y-101232400D01*
X159399314Y-101160971D01*
X159470742Y-101018114D01*
X159542171Y-100732400D01*
X159542171Y-100375257D01*
X159470742Y-100089542D01*
X159399314Y-99946685D01*
X159327885Y-99875257D01*
X159185028Y-99803828D01*
X159042171Y-99803828D01*
X158899314Y-99875257D01*
X158827885Y-99946685D01*
X158756457Y-100089542D01*
X158685028Y-100375257D01*
X158685028Y-100732400D01*
X158756457Y-101018114D01*
X158827885Y-101160971D01*
X158899314Y-101232400D01*
X159042171Y-101303828D01*
X160185028Y-99946685D02*
X160256457Y-99875257D01*
X160185028Y-99803828D01*
X160113600Y-99875257D01*
X160185028Y-99946685D01*
X160185028Y-99803828D01*
X160827885Y-101160971D02*
X160899314Y-101232400D01*
X161042171Y-101303828D01*
X161399314Y-101303828D01*
X161542171Y-101232400D01*
X161613600Y-101160971D01*
X161685028Y-101018114D01*
X161685028Y-100875257D01*
X161613600Y-100660971D01*
X160756457Y-99803828D01*
X161685028Y-99803828D01*
X157042171Y-98610971D02*
X157113600Y-98682400D01*
X157256457Y-98753828D01*
X157613600Y-98753828D01*
X157756457Y-98682400D01*
X157827885Y-98610971D01*
X157899314Y-98468114D01*
X157899314Y-98325257D01*
X157827885Y-98110971D01*
X156970742Y-97253828D01*
X157899314Y-97253828D01*
X158827885Y-98753828D02*
X158970742Y-98753828D01*
X159113600Y-98682400D01*
X159185028Y-98610971D01*
X159256457Y-98468114D01*
X159327885Y-98182400D01*
X159327885Y-97825257D01*
X159256457Y-97539542D01*
X159185028Y-97396685D01*
X159113600Y-97325257D01*
X158970742Y-97253828D01*
X158827885Y-97253828D01*
X158685028Y-97325257D01*
X158613600Y-97396685D01*
X158542171Y-97539542D01*
X158470742Y-97825257D01*
X158470742Y-98182400D01*
X158542171Y-98468114D01*
X158613600Y-98610971D01*
X158685028Y-98682400D01*
X158827885Y-98753828D01*
X159899314Y-98610971D02*
X159970742Y-98682400D01*
X160113600Y-98753828D01*
X160470742Y-98753828D01*
X160613600Y-98682400D01*
X160685028Y-98610971D01*
X160756457Y-98468114D01*
X160756457Y-98325257D01*
X160685028Y-98110971D01*
X159827885Y-97253828D01*
X160756457Y-97253828D01*
X161256457Y-98753828D02*
X162185028Y-98753828D01*
X161685028Y-98182400D01*
X161899314Y-98182400D01*
X162042171Y-98110971D01*
X162113600Y-98039542D01*
X162185028Y-97896685D01*
X162185028Y-97539542D01*
X162113600Y-97396685D01*
X162042171Y-97325257D01*
X161899314Y-97253828D01*
X161470742Y-97253828D01*
X161327885Y-97325257D01*
X161256457Y-97396685D01*
D10*
X150088600Y-104292400D02*
X150088600Y-96672400D01*
X169773600Y-104292400D02*
X150073360Y-104292400D01*
X169773600Y-96827340D02*
X169773600Y-104292400D01*
X150088600Y-96672400D02*
X169809160Y-96659700D01*
D12*
X126990464Y-61133400D02*
X125536336Y-61133400D01*
X126990464Y-59313400D02*
X125536336Y-59313400D01*
X118317600Y-60309136D02*
X118317600Y-61763264D01*
X120137600Y-60309136D02*
X120137600Y-61763264D01*
X123261800Y-60333936D02*
X123261800Y-61788064D01*
X121441800Y-60333936D02*
X121441800Y-61788064D01*
X138074348Y-61929600D02*
X139496852Y-61929600D01*
X138074348Y-63749600D02*
X139496852Y-63749600D01*
X153090200Y-64998652D02*
X153090200Y-63576148D01*
X154910200Y-64998652D02*
X154910200Y-63576148D01*
X122882200Y-112683800D02*
X125682200Y-112683800D01*
X125682200Y-112683800D02*
X125682200Y-110683800D01*
X125682200Y-110683800D02*
X122882200Y-110683800D01*
X122882200Y-110683800D02*
X122882200Y-112683800D01*
X125225000Y-107889800D02*
X122425000Y-107889800D01*
X122425000Y-107889800D02*
X122425000Y-109889800D01*
X122425000Y-109889800D02*
X125225000Y-109889800D01*
X125225000Y-109889800D02*
X125225000Y-107889800D01*
X125377400Y-116570000D02*
X125377400Y-114570000D01*
X122577400Y-116570000D02*
X125377400Y-116570000D01*
X122577400Y-114570000D02*
X122577400Y-116570000D01*
X125377400Y-114570000D02*
X122577400Y-114570000D01*
X192751064Y-119105000D02*
X191296936Y-119105000D01*
X192751064Y-120925000D02*
X191296936Y-120925000D01*
X166441800Y-139944464D02*
X166441800Y-138490336D01*
X164621800Y-139944464D02*
X164621800Y-138490336D01*
X127288936Y-120823400D02*
X128743064Y-120823400D01*
X127288936Y-119003400D02*
X128743064Y-119003400D01*
X153496600Y-139969864D02*
X153496600Y-138515736D01*
X155316600Y-139969864D02*
X155316600Y-138515736D01*
X131288200Y-106314864D02*
X131288200Y-104860736D01*
X129468200Y-106314864D02*
X129468200Y-104860736D01*
X131932000Y-106289464D02*
X131932000Y-104835336D01*
X133752000Y-106289464D02*
X133752000Y-104835336D01*
X131415200Y-58181864D02*
X131415200Y-56727736D01*
X129595200Y-58181864D02*
X129595200Y-56727736D01*
X187126200Y-126888864D02*
X187126200Y-125434736D01*
X188946200Y-126888864D02*
X188946200Y-125434736D01*
X170785200Y-134223136D02*
X170785200Y-135677264D01*
X168965200Y-134223136D02*
X168965200Y-135677264D01*
X134615600Y-121827936D02*
X134615600Y-123282064D01*
X132795600Y-121827936D02*
X132795600Y-123282064D01*
X159863200Y-133994536D02*
X159863200Y-135448664D01*
X158043200Y-133994536D02*
X158043200Y-135448664D01*
X133472600Y-67249664D02*
X133472600Y-65795536D01*
X131652600Y-67249664D02*
X131652600Y-65795536D01*
X126717456Y-67699615D02*
X125458144Y-66972551D01*
X127627456Y-66123449D02*
X126368144Y-65396385D01*
X156824000Y-119719736D02*
X156824000Y-121173864D01*
X158644000Y-119719736D02*
X158644000Y-121173864D01*
X154030000Y-121173864D02*
X154030000Y-119719736D01*
X155850000Y-121173864D02*
X155850000Y-119719736D01*
X191867200Y-67259148D02*
X191867200Y-68681652D01*
X190047200Y-67259148D02*
X190047200Y-68681652D01*
X136601148Y-106963800D02*
X138023652Y-106963800D01*
X136601148Y-108783800D02*
X138023652Y-108783800D01*
X136601148Y-106421600D02*
X138023652Y-106421600D01*
X136601148Y-104601600D02*
X138023652Y-104601600D01*
X136844600Y-101295200D02*
X136844600Y-99495200D01*
X136844600Y-101295200D02*
X136844600Y-102095200D01*
X139964600Y-101295200D02*
X139964600Y-100495200D01*
X139964600Y-101295200D02*
X139964600Y-102095200D01*
X134497400Y-101028848D02*
X134497400Y-102451352D01*
X136317400Y-101028848D02*
X136317400Y-102451352D01*
X136575748Y-109376800D02*
X137998252Y-109376800D01*
X136575748Y-111196800D02*
X137998252Y-111196800D01*
X180009748Y-135733200D02*
X181432252Y-135733200D01*
X180009748Y-133913200D02*
X181432252Y-133913200D01*
X178425464Y-123829400D02*
X176971336Y-123829400D01*
X178425464Y-125649400D02*
X176971336Y-125649400D01*
X192485600Y-68681652D02*
X192485600Y-67259148D01*
X194305600Y-68681652D02*
X194305600Y-67259148D01*
X139704400Y-135567336D02*
X139704400Y-136771464D01*
X141524400Y-135567336D02*
X141524400Y-136771464D01*
X144284248Y-138908200D02*
X145706752Y-138908200D01*
X144284248Y-137088200D02*
X145706752Y-137088200D01*
X189052252Y-136215800D02*
X187629748Y-136215800D01*
X189052252Y-134395800D02*
X187629748Y-134395800D01*
X133218600Y-134721652D02*
X133218600Y-133299148D01*
X131398600Y-134721652D02*
X131398600Y-133299148D01*
X172927600Y-138430052D02*
X172927600Y-137007548D01*
X174747600Y-138430052D02*
X174747600Y-137007548D01*
X131058800Y-61444600D02*
X131988800Y-61444600D01*
X134218800Y-61444600D02*
X133288800Y-61444600D01*
X134218800Y-61444600D02*
X134218800Y-63604600D01*
X131058800Y-61444600D02*
X131058800Y-62904600D01*
X163593100Y-93179848D02*
X163593100Y-94602352D01*
X165413100Y-93179848D02*
X165413100Y-94602352D01*
X160786400Y-94767452D02*
X160786400Y-93344948D01*
X162606400Y-94767452D02*
X162606400Y-93344948D01*
X166242564Y-89360598D02*
X165236702Y-88354736D01*
X167529498Y-88073664D02*
X166523636Y-87067802D01*
X157713000Y-95189664D02*
X157713000Y-93735536D01*
X159533000Y-95189664D02*
X159533000Y-93735536D01*
X156651200Y-95278400D02*
X156651200Y-92478400D01*
X156651200Y-92478400D02*
X154651200Y-92478400D01*
X154651200Y-92478400D02*
X154651200Y-95278400D01*
X154651200Y-95278400D02*
X156651200Y-95278400D01*
X171305900Y-89606036D02*
X171305900Y-90810164D01*
X169485900Y-89606036D02*
X169485900Y-90810164D01*
X194414600Y-114189000D02*
X191614600Y-114189000D01*
X191614600Y-114189000D02*
X191614600Y-116189000D01*
X191614600Y-116189000D02*
X194414600Y-116189000D01*
X194414600Y-116189000D02*
X194414600Y-114189000D01*
X194772400Y-112240600D02*
X194772400Y-110780600D01*
X191612400Y-112240600D02*
X191612400Y-110080600D01*
X191612400Y-112240600D02*
X192542400Y-112240600D01*
X194772400Y-112240600D02*
X193842400Y-112240600D01*
X193899200Y-105800536D02*
X193899200Y-107254664D01*
X192079200Y-105800536D02*
X192079200Y-107254664D01*
D13*
X129497057Y-62580780D02*
X129830390Y-62104590D01*
X130068485Y-62580780D02*
X130068485Y-61580780D01*
X129687533Y-61580780D01*
X129592295Y-61628400D01*
X129544676Y-61676019D01*
X129497057Y-61771257D01*
X129497057Y-61914114D01*
X129544676Y-62009352D01*
X129592295Y-62056971D01*
X129687533Y-62104590D01*
X130068485Y-62104590D01*
X128544676Y-62580780D02*
X129116104Y-62580780D01*
X128830390Y-62580780D02*
X128830390Y-61580780D01*
X128925628Y-61723638D01*
X129020866Y-61818876D01*
X129116104Y-61866495D01*
X128068485Y-62580780D02*
X127878009Y-62580780D01*
X127782771Y-62533161D01*
X127735152Y-62485542D01*
X127639914Y-62342685D01*
X127592295Y-62152209D01*
X127592295Y-61771257D01*
X127639914Y-61676019D01*
X127687533Y-61628400D01*
X127782771Y-61580780D01*
X127973247Y-61580780D01*
X128068485Y-61628400D01*
X128116104Y-61676019D01*
X128163723Y-61771257D01*
X128163723Y-62009352D01*
X128116104Y-62104590D01*
X128068485Y-62152209D01*
X127973247Y-62199828D01*
X127782771Y-62199828D01*
X127687533Y-62152209D01*
X127639914Y-62104590D01*
X127592295Y-62009352D01*
X119819657Y-64714380D02*
X120152990Y-64238190D01*
X120391085Y-64714380D02*
X120391085Y-63714380D01*
X120010133Y-63714380D01*
X119914895Y-63762000D01*
X119867276Y-63809619D01*
X119819657Y-63904857D01*
X119819657Y-64047714D01*
X119867276Y-64142952D01*
X119914895Y-64190571D01*
X120010133Y-64238190D01*
X120391085Y-64238190D01*
X119438704Y-63809619D02*
X119391085Y-63762000D01*
X119295847Y-63714380D01*
X119057752Y-63714380D01*
X118962514Y-63762000D01*
X118914895Y-63809619D01*
X118867276Y-63904857D01*
X118867276Y-64000095D01*
X118914895Y-64142952D01*
X119486323Y-64714380D01*
X118867276Y-64714380D01*
X118248228Y-63714380D02*
X118152990Y-63714380D01*
X118057752Y-63762000D01*
X118010133Y-63809619D01*
X117962514Y-63904857D01*
X117914895Y-64095333D01*
X117914895Y-64333428D01*
X117962514Y-64523904D01*
X118010133Y-64619142D01*
X118057752Y-64666761D01*
X118152990Y-64714380D01*
X118248228Y-64714380D01*
X118343466Y-64666761D01*
X118391085Y-64619142D01*
X118438704Y-64523904D01*
X118486323Y-64333428D01*
X118486323Y-64095333D01*
X118438704Y-63904857D01*
X118391085Y-63809619D01*
X118343466Y-63762000D01*
X118248228Y-63714380D01*
X122969257Y-64663580D02*
X123302590Y-64187390D01*
X123540685Y-64663580D02*
X123540685Y-63663580D01*
X123159733Y-63663580D01*
X123064495Y-63711200D01*
X123016876Y-63758819D01*
X122969257Y-63854057D01*
X122969257Y-63996914D01*
X123016876Y-64092152D01*
X123064495Y-64139771D01*
X123159733Y-64187390D01*
X123540685Y-64187390D01*
X122588304Y-63758819D02*
X122540685Y-63711200D01*
X122445447Y-63663580D01*
X122207352Y-63663580D01*
X122112114Y-63711200D01*
X122064495Y-63758819D01*
X122016876Y-63854057D01*
X122016876Y-63949295D01*
X122064495Y-64092152D01*
X122635923Y-64663580D01*
X122016876Y-64663580D01*
X121064495Y-64663580D02*
X121635923Y-64663580D01*
X121350209Y-64663580D02*
X121350209Y-63663580D01*
X121445447Y-63806438D01*
X121540685Y-63901676D01*
X121635923Y-63949295D01*
X138952266Y-65046742D02*
X138999885Y-65094361D01*
X139142742Y-65141980D01*
X139237980Y-65141980D01*
X139380838Y-65094361D01*
X139476076Y-64999123D01*
X139523695Y-64903885D01*
X139571314Y-64713409D01*
X139571314Y-64570552D01*
X139523695Y-64380076D01*
X139476076Y-64284838D01*
X139380838Y-64189600D01*
X139237980Y-64141980D01*
X139142742Y-64141980D01*
X138999885Y-64189600D01*
X138952266Y-64237219D01*
X138618933Y-64141980D02*
X137999885Y-64141980D01*
X138333219Y-64522933D01*
X138190361Y-64522933D01*
X138095123Y-64570552D01*
X138047504Y-64618171D01*
X137999885Y-64713409D01*
X137999885Y-64951504D01*
X138047504Y-65046742D01*
X138095123Y-65094361D01*
X138190361Y-65141980D01*
X138476076Y-65141980D01*
X138571314Y-65094361D01*
X138618933Y-65046742D01*
X156207342Y-64120733D02*
X156254961Y-64073114D01*
X156302580Y-63930257D01*
X156302580Y-63835019D01*
X156254961Y-63692161D01*
X156159723Y-63596923D01*
X156064485Y-63549304D01*
X155874009Y-63501685D01*
X155731152Y-63501685D01*
X155540676Y-63549304D01*
X155445438Y-63596923D01*
X155350200Y-63692161D01*
X155302580Y-63835019D01*
X155302580Y-63930257D01*
X155350200Y-64073114D01*
X155397819Y-64120733D01*
X155635914Y-64977876D02*
X156302580Y-64977876D01*
X155254961Y-64739780D02*
X155969247Y-64501685D01*
X155969247Y-65120733D01*
X124831000Y-113076485D02*
X124831000Y-113612200D01*
X124866714Y-113719342D01*
X124938142Y-113790771D01*
X125045285Y-113826485D01*
X125116714Y-113826485D01*
X124473857Y-113826485D02*
X124473857Y-113076485D01*
X124188142Y-113076485D01*
X124116714Y-113112200D01*
X124081000Y-113147914D01*
X124045285Y-113219342D01*
X124045285Y-113326485D01*
X124081000Y-113397914D01*
X124116714Y-113433628D01*
X124188142Y-113469342D01*
X124473857Y-113469342D01*
X123331000Y-113826485D02*
X123759571Y-113826485D01*
X123545285Y-113826485D02*
X123545285Y-113076485D01*
X123616714Y-113183628D01*
X123688142Y-113255057D01*
X123759571Y-113290771D01*
X124480533Y-106564180D02*
X124480533Y-107278466D01*
X124528152Y-107421323D01*
X124623390Y-107516561D01*
X124766247Y-107564180D01*
X124861485Y-107564180D01*
X124004342Y-107564180D02*
X124004342Y-106564180D01*
X123623390Y-106564180D01*
X123528152Y-106611800D01*
X123480533Y-106659419D01*
X123432914Y-106754657D01*
X123432914Y-106897514D01*
X123480533Y-106992752D01*
X123528152Y-107040371D01*
X123623390Y-107087990D01*
X124004342Y-107087990D01*
X123051961Y-106659419D02*
X123004342Y-106611800D01*
X122909104Y-106564180D01*
X122671009Y-106564180D01*
X122575771Y-106611800D01*
X122528152Y-106659419D01*
X122480533Y-106754657D01*
X122480533Y-106849895D01*
X122528152Y-106992752D01*
X123099580Y-107564180D01*
X122480533Y-107564180D01*
X124810733Y-116978180D02*
X124810733Y-117692466D01*
X124858352Y-117835323D01*
X124953590Y-117930561D01*
X125096447Y-117978180D01*
X125191685Y-117978180D01*
X124334542Y-117978180D02*
X124334542Y-116978180D01*
X123953590Y-116978180D01*
X123858352Y-117025800D01*
X123810733Y-117073419D01*
X123763114Y-117168657D01*
X123763114Y-117311514D01*
X123810733Y-117406752D01*
X123858352Y-117454371D01*
X123953590Y-117501990D01*
X124334542Y-117501990D01*
X123429780Y-116978180D02*
X122810733Y-116978180D01*
X123144066Y-117359133D01*
X123001209Y-117359133D01*
X122905971Y-117406752D01*
X122858352Y-117454371D01*
X122810733Y-117549609D01*
X122810733Y-117787704D01*
X122858352Y-117882942D01*
X122905971Y-117930561D01*
X123001209Y-117978180D01*
X123286923Y-117978180D01*
X123382161Y-117930561D01*
X123429780Y-117882942D01*
X192190666Y-118647380D02*
X192524000Y-118171190D01*
X192762095Y-118647380D02*
X192762095Y-117647380D01*
X192381142Y-117647380D01*
X192285904Y-117695000D01*
X192238285Y-117742619D01*
X192190666Y-117837857D01*
X192190666Y-117980714D01*
X192238285Y-118075952D01*
X192285904Y-118123571D01*
X192381142Y-118171190D01*
X192762095Y-118171190D01*
X191285904Y-117647380D02*
X191762095Y-117647380D01*
X191809714Y-118123571D01*
X191762095Y-118075952D01*
X191666857Y-118028333D01*
X191428761Y-118028333D01*
X191333523Y-118075952D01*
X191285904Y-118123571D01*
X191238285Y-118218809D01*
X191238285Y-118456904D01*
X191285904Y-118552142D01*
X191333523Y-118599761D01*
X191428761Y-118647380D01*
X191666857Y-118647380D01*
X191762095Y-118599761D01*
X191809714Y-118552142D01*
X167804180Y-139050733D02*
X167327990Y-138717400D01*
X167804180Y-138479304D02*
X166804180Y-138479304D01*
X166804180Y-138860257D01*
X166851800Y-138955495D01*
X166899419Y-139003114D01*
X166994657Y-139050733D01*
X167137514Y-139050733D01*
X167232752Y-139003114D01*
X167280371Y-138955495D01*
X167327990Y-138860257D01*
X167327990Y-138479304D01*
X166804180Y-139907876D02*
X166804180Y-139717400D01*
X166851800Y-139622161D01*
X166899419Y-139574542D01*
X167042276Y-139479304D01*
X167232752Y-139431685D01*
X167613704Y-139431685D01*
X167708942Y-139479304D01*
X167756561Y-139526923D01*
X167804180Y-139622161D01*
X167804180Y-139812638D01*
X167756561Y-139907876D01*
X167708942Y-139955495D01*
X167613704Y-140003114D01*
X167375609Y-140003114D01*
X167280371Y-139955495D01*
X167232752Y-139907876D01*
X167185133Y-139812638D01*
X167185133Y-139622161D01*
X167232752Y-139526923D01*
X167280371Y-139479304D01*
X167375609Y-139431685D01*
X131789466Y-119857780D02*
X132122800Y-119381590D01*
X132360895Y-119857780D02*
X132360895Y-118857780D01*
X131979942Y-118857780D01*
X131884704Y-118905400D01*
X131837085Y-118953019D01*
X131789466Y-119048257D01*
X131789466Y-119191114D01*
X131837085Y-119286352D01*
X131884704Y-119333971D01*
X131979942Y-119381590D01*
X132360895Y-119381590D01*
X131456133Y-118857780D02*
X130789466Y-118857780D01*
X131218038Y-119857780D01*
X156678980Y-139076133D02*
X156202790Y-138742800D01*
X156678980Y-138504704D02*
X155678980Y-138504704D01*
X155678980Y-138885657D01*
X155726600Y-138980895D01*
X155774219Y-139028514D01*
X155869457Y-139076133D01*
X156012314Y-139076133D01*
X156107552Y-139028514D01*
X156155171Y-138980895D01*
X156202790Y-138885657D01*
X156202790Y-138504704D01*
X156107552Y-139647561D02*
X156059933Y-139552323D01*
X156012314Y-139504704D01*
X155917076Y-139457085D01*
X155869457Y-139457085D01*
X155774219Y-139504704D01*
X155726600Y-139552323D01*
X155678980Y-139647561D01*
X155678980Y-139838038D01*
X155726600Y-139933276D01*
X155774219Y-139980895D01*
X155869457Y-140028514D01*
X155917076Y-140028514D01*
X156012314Y-139980895D01*
X156059933Y-139933276D01*
X156107552Y-139838038D01*
X156107552Y-139647561D01*
X156155171Y-139552323D01*
X156202790Y-139504704D01*
X156298028Y-139457085D01*
X156488504Y-139457085D01*
X156583742Y-139504704D01*
X156631361Y-139552323D01*
X156678980Y-139647561D01*
X156678980Y-139838038D01*
X156631361Y-139933276D01*
X156583742Y-139980895D01*
X156488504Y-140028514D01*
X156298028Y-140028514D01*
X156202790Y-139980895D01*
X156155171Y-139933276D01*
X156107552Y-139838038D01*
X130494066Y-109265980D02*
X130827400Y-108789790D01*
X131065495Y-109265980D02*
X131065495Y-108265980D01*
X130684542Y-108265980D01*
X130589304Y-108313600D01*
X130541685Y-108361219D01*
X130494066Y-108456457D01*
X130494066Y-108599314D01*
X130541685Y-108694552D01*
X130589304Y-108742171D01*
X130684542Y-108789790D01*
X131065495Y-108789790D01*
X130017876Y-109265980D02*
X129827400Y-109265980D01*
X129732161Y-109218361D01*
X129684542Y-109170742D01*
X129589304Y-109027885D01*
X129541685Y-108837409D01*
X129541685Y-108456457D01*
X129589304Y-108361219D01*
X129636923Y-108313600D01*
X129732161Y-108265980D01*
X129922638Y-108265980D01*
X130017876Y-108313600D01*
X130065495Y-108361219D01*
X130113114Y-108456457D01*
X130113114Y-108694552D01*
X130065495Y-108789790D01*
X130017876Y-108837409D01*
X129922638Y-108885028D01*
X129732161Y-108885028D01*
X129636923Y-108837409D01*
X129589304Y-108789790D01*
X129541685Y-108694552D01*
X133459457Y-109240580D02*
X133792790Y-108764390D01*
X134030885Y-109240580D02*
X134030885Y-108240580D01*
X133649933Y-108240580D01*
X133554695Y-108288200D01*
X133507076Y-108335819D01*
X133459457Y-108431057D01*
X133459457Y-108573914D01*
X133507076Y-108669152D01*
X133554695Y-108716771D01*
X133649933Y-108764390D01*
X134030885Y-108764390D01*
X132507076Y-109240580D02*
X133078504Y-109240580D01*
X132792790Y-109240580D02*
X132792790Y-108240580D01*
X132888028Y-108383438D01*
X132983266Y-108478676D01*
X133078504Y-108526295D01*
X131888028Y-108240580D02*
X131792790Y-108240580D01*
X131697552Y-108288200D01*
X131649933Y-108335819D01*
X131602314Y-108431057D01*
X131554695Y-108621533D01*
X131554695Y-108859628D01*
X131602314Y-109050104D01*
X131649933Y-109145342D01*
X131697552Y-109192961D01*
X131792790Y-109240580D01*
X131888028Y-109240580D01*
X131983266Y-109192961D01*
X132030885Y-109145342D01*
X132078504Y-109050104D01*
X132126123Y-108859628D01*
X132126123Y-108621533D01*
X132078504Y-108431057D01*
X132030885Y-108335819D01*
X131983266Y-108288200D01*
X131888028Y-108240580D01*
X133535657Y-56535580D02*
X133868990Y-56059390D01*
X134107085Y-56535580D02*
X134107085Y-55535580D01*
X133726133Y-55535580D01*
X133630895Y-55583200D01*
X133583276Y-55630819D01*
X133535657Y-55726057D01*
X133535657Y-55868914D01*
X133583276Y-55964152D01*
X133630895Y-56011771D01*
X133726133Y-56059390D01*
X134107085Y-56059390D01*
X132583276Y-56535580D02*
X133154704Y-56535580D01*
X132868990Y-56535580D02*
X132868990Y-55535580D01*
X132964228Y-55678438D01*
X133059466Y-55773676D01*
X133154704Y-55821295D01*
X131630895Y-56535580D02*
X132202323Y-56535580D01*
X131916609Y-56535580D02*
X131916609Y-55535580D01*
X132011847Y-55678438D01*
X132107085Y-55773676D01*
X132202323Y-55821295D01*
X186862980Y-125671342D02*
X186386790Y-125338009D01*
X186862980Y-125099914D02*
X185862980Y-125099914D01*
X185862980Y-125480866D01*
X185910600Y-125576104D01*
X185958219Y-125623723D01*
X186053457Y-125671342D01*
X186196314Y-125671342D01*
X186291552Y-125623723D01*
X186339171Y-125576104D01*
X186386790Y-125480866D01*
X186386790Y-125099914D01*
X186862980Y-126623723D02*
X186862980Y-126052295D01*
X186862980Y-126338009D02*
X185862980Y-126338009D01*
X186005838Y-126242771D01*
X186101076Y-126147533D01*
X186148695Y-126052295D01*
X185862980Y-126957057D02*
X185862980Y-127576104D01*
X186243933Y-127242771D01*
X186243933Y-127385628D01*
X186291552Y-127480866D01*
X186339171Y-127528485D01*
X186434409Y-127576104D01*
X186672504Y-127576104D01*
X186767742Y-127528485D01*
X186815361Y-127480866D01*
X186862980Y-127385628D01*
X186862980Y-127099914D01*
X186815361Y-127004676D01*
X186767742Y-126957057D01*
X170492657Y-138577580D02*
X170825990Y-138101390D01*
X171064085Y-138577580D02*
X171064085Y-137577580D01*
X170683133Y-137577580D01*
X170587895Y-137625200D01*
X170540276Y-137672819D01*
X170492657Y-137768057D01*
X170492657Y-137910914D01*
X170540276Y-138006152D01*
X170587895Y-138053771D01*
X170683133Y-138101390D01*
X171064085Y-138101390D01*
X169540276Y-138577580D02*
X170111704Y-138577580D01*
X169825990Y-138577580D02*
X169825990Y-137577580D01*
X169921228Y-137720438D01*
X170016466Y-137815676D01*
X170111704Y-137863295D01*
X168683133Y-137910914D02*
X168683133Y-138577580D01*
X168921228Y-137529961D02*
X169159323Y-138244247D01*
X168540276Y-138244247D01*
X135694657Y-119908580D02*
X136027990Y-119432390D01*
X136266085Y-119908580D02*
X136266085Y-118908580D01*
X135885133Y-118908580D01*
X135789895Y-118956200D01*
X135742276Y-119003819D01*
X135694657Y-119099057D01*
X135694657Y-119241914D01*
X135742276Y-119337152D01*
X135789895Y-119384771D01*
X135885133Y-119432390D01*
X136266085Y-119432390D01*
X134742276Y-119908580D02*
X135313704Y-119908580D01*
X135027990Y-119908580D02*
X135027990Y-118908580D01*
X135123228Y-119051438D01*
X135218466Y-119146676D01*
X135313704Y-119194295D01*
X133837514Y-118908580D02*
X134313704Y-118908580D01*
X134361323Y-119384771D01*
X134313704Y-119337152D01*
X134218466Y-119289533D01*
X133980371Y-119289533D01*
X133885133Y-119337152D01*
X133837514Y-119384771D01*
X133789895Y-119480009D01*
X133789895Y-119718104D01*
X133837514Y-119813342D01*
X133885133Y-119860961D01*
X133980371Y-119908580D01*
X134218466Y-119908580D01*
X134313704Y-119860961D01*
X134361323Y-119813342D01*
X161310580Y-134408942D02*
X160834390Y-134075609D01*
X161310580Y-133837514D02*
X160310580Y-133837514D01*
X160310580Y-134218466D01*
X160358200Y-134313704D01*
X160405819Y-134361323D01*
X160501057Y-134408942D01*
X160643914Y-134408942D01*
X160739152Y-134361323D01*
X160786771Y-134313704D01*
X160834390Y-134218466D01*
X160834390Y-133837514D01*
X161310580Y-135361323D02*
X161310580Y-134789895D01*
X161310580Y-135075609D02*
X160310580Y-135075609D01*
X160453438Y-134980371D01*
X160548676Y-134885133D01*
X160596295Y-134789895D01*
X160310580Y-136218466D02*
X160310580Y-136027990D01*
X160358200Y-135932752D01*
X160405819Y-135885133D01*
X160548676Y-135789895D01*
X160739152Y-135742276D01*
X161120104Y-135742276D01*
X161215342Y-135789895D01*
X161262961Y-135837514D01*
X161310580Y-135932752D01*
X161310580Y-136123228D01*
X161262961Y-136218466D01*
X161215342Y-136266085D01*
X161120104Y-136313704D01*
X160882009Y-136313704D01*
X160786771Y-136266085D01*
X160739152Y-136218466D01*
X160691533Y-136123228D01*
X160691533Y-135932752D01*
X160739152Y-135837514D01*
X160786771Y-135789895D01*
X160882009Y-135742276D01*
X134834980Y-65879742D02*
X134358790Y-65546409D01*
X134834980Y-65308314D02*
X133834980Y-65308314D01*
X133834980Y-65689266D01*
X133882600Y-65784504D01*
X133930219Y-65832123D01*
X134025457Y-65879742D01*
X134168314Y-65879742D01*
X134263552Y-65832123D01*
X134311171Y-65784504D01*
X134358790Y-65689266D01*
X134358790Y-65308314D01*
X134834980Y-66832123D02*
X134834980Y-66260695D01*
X134834980Y-66546409D02*
X133834980Y-66546409D01*
X133977838Y-66451171D01*
X134073076Y-66355933D01*
X134120695Y-66260695D01*
X133834980Y-67165457D02*
X133834980Y-67832123D01*
X134834980Y-67403552D01*
X126314540Y-69217001D02*
X126841310Y-68971275D01*
X126809411Y-69502716D02*
X127309411Y-68636690D01*
X126979497Y-68446214D01*
X126873209Y-68439834D01*
X126808160Y-68457264D01*
X126719302Y-68515933D01*
X126647873Y-68639651D01*
X126641493Y-68745939D01*
X126658923Y-68810988D01*
X126717592Y-68899847D01*
X127047507Y-69090323D01*
X125489754Y-68740811D02*
X125984625Y-69026525D01*
X125737189Y-68883668D02*
X126237189Y-68017643D01*
X126248239Y-68188980D01*
X126283099Y-68319077D01*
X126341768Y-68407936D01*
X125280596Y-67960225D02*
X125386884Y-67966605D01*
X125451933Y-67949175D01*
X125540791Y-67890506D01*
X125564601Y-67849267D01*
X125570981Y-67742978D01*
X125553551Y-67677930D01*
X125494882Y-67589071D01*
X125329925Y-67493833D01*
X125223637Y-67487453D01*
X125158588Y-67504883D01*
X125069729Y-67563552D01*
X125045920Y-67604792D01*
X125039540Y-67711080D01*
X125056970Y-67776129D01*
X125115639Y-67864987D01*
X125280596Y-67960225D01*
X125339265Y-68049083D01*
X125356695Y-68114132D01*
X125350315Y-68220420D01*
X125255077Y-68385378D01*
X125166219Y-68444047D01*
X125101170Y-68461476D01*
X124994882Y-68455097D01*
X124829925Y-68359859D01*
X124771256Y-68271000D01*
X124753826Y-68205951D01*
X124760206Y-68099663D01*
X124855444Y-67934706D01*
X124944302Y-67876037D01*
X125009351Y-67858607D01*
X125115639Y-67864987D01*
X160091380Y-119778542D02*
X159615190Y-119445209D01*
X160091380Y-119207114D02*
X159091380Y-119207114D01*
X159091380Y-119588066D01*
X159139000Y-119683304D01*
X159186619Y-119730923D01*
X159281857Y-119778542D01*
X159424714Y-119778542D01*
X159519952Y-119730923D01*
X159567571Y-119683304D01*
X159615190Y-119588066D01*
X159615190Y-119207114D01*
X159186619Y-120159495D02*
X159139000Y-120207114D01*
X159091380Y-120302352D01*
X159091380Y-120540447D01*
X159139000Y-120635685D01*
X159186619Y-120683304D01*
X159281857Y-120730923D01*
X159377095Y-120730923D01*
X159519952Y-120683304D01*
X160091380Y-120111876D01*
X160091380Y-120730923D01*
X159186619Y-121111876D02*
X159139000Y-121159495D01*
X159091380Y-121254733D01*
X159091380Y-121492828D01*
X159139000Y-121588066D01*
X159186619Y-121635685D01*
X159281857Y-121683304D01*
X159377095Y-121683304D01*
X159519952Y-121635685D01*
X160091380Y-121064257D01*
X160091380Y-121683304D01*
X153284180Y-119829342D02*
X152807990Y-119496009D01*
X153284180Y-119257914D02*
X152284180Y-119257914D01*
X152284180Y-119638866D01*
X152331800Y-119734104D01*
X152379419Y-119781723D01*
X152474657Y-119829342D01*
X152617514Y-119829342D01*
X152712752Y-119781723D01*
X152760371Y-119734104D01*
X152807990Y-119638866D01*
X152807990Y-119257914D01*
X152379419Y-120210295D02*
X152331800Y-120257914D01*
X152284180Y-120353152D01*
X152284180Y-120591247D01*
X152331800Y-120686485D01*
X152379419Y-120734104D01*
X152474657Y-120781723D01*
X152569895Y-120781723D01*
X152712752Y-120734104D01*
X153284180Y-120162676D01*
X153284180Y-120781723D01*
X152284180Y-121115057D02*
X152284180Y-121734104D01*
X152665133Y-121400771D01*
X152665133Y-121543628D01*
X152712752Y-121638866D01*
X152760371Y-121686485D01*
X152855609Y-121734104D01*
X153093704Y-121734104D01*
X153188942Y-121686485D01*
X153236561Y-121638866D01*
X153284180Y-121543628D01*
X153284180Y-121257914D01*
X153236561Y-121162676D01*
X153188942Y-121115057D01*
X191174666Y-71604142D02*
X191222285Y-71651761D01*
X191365142Y-71699380D01*
X191460380Y-71699380D01*
X191603238Y-71651761D01*
X191698476Y-71556523D01*
X191746095Y-71461285D01*
X191793714Y-71270809D01*
X191793714Y-71127952D01*
X191746095Y-70937476D01*
X191698476Y-70842238D01*
X191603238Y-70747000D01*
X191460380Y-70699380D01*
X191365142Y-70699380D01*
X191222285Y-70747000D01*
X191174666Y-70794619D01*
X190698476Y-71699380D02*
X190508000Y-71699380D01*
X190412761Y-71651761D01*
X190365142Y-71604142D01*
X190269904Y-71461285D01*
X190222285Y-71270809D01*
X190222285Y-70889857D01*
X190269904Y-70794619D01*
X190317523Y-70747000D01*
X190412761Y-70699380D01*
X190603238Y-70699380D01*
X190698476Y-70747000D01*
X190746095Y-70794619D01*
X190793714Y-70889857D01*
X190793714Y-71127952D01*
X190746095Y-71223190D01*
X190698476Y-71270809D01*
X190603238Y-71318428D01*
X190412761Y-71318428D01*
X190317523Y-71270809D01*
X190269904Y-71223190D01*
X190222285Y-71127952D01*
X141663657Y-108154742D02*
X141711276Y-108202361D01*
X141854133Y-108249980D01*
X141949371Y-108249980D01*
X142092228Y-108202361D01*
X142187466Y-108107123D01*
X142235085Y-108011885D01*
X142282704Y-107821409D01*
X142282704Y-107678552D01*
X142235085Y-107488076D01*
X142187466Y-107392838D01*
X142092228Y-107297600D01*
X141949371Y-107249980D01*
X141854133Y-107249980D01*
X141711276Y-107297600D01*
X141663657Y-107345219D01*
X140711276Y-108249980D02*
X141282704Y-108249980D01*
X140996990Y-108249980D02*
X140996990Y-107249980D01*
X141092228Y-107392838D01*
X141187466Y-107488076D01*
X141282704Y-107535695D01*
X139758895Y-108249980D02*
X140330323Y-108249980D01*
X140044609Y-108249980D02*
X140044609Y-107249980D01*
X140139847Y-107392838D01*
X140235085Y-107488076D01*
X140330323Y-107535695D01*
X142019257Y-105995742D02*
X142066876Y-106043361D01*
X142209733Y-106090980D01*
X142304971Y-106090980D01*
X142447828Y-106043361D01*
X142543066Y-105948123D01*
X142590685Y-105852885D01*
X142638304Y-105662409D01*
X142638304Y-105519552D01*
X142590685Y-105329076D01*
X142543066Y-105233838D01*
X142447828Y-105138600D01*
X142304971Y-105090980D01*
X142209733Y-105090980D01*
X142066876Y-105138600D01*
X142019257Y-105186219D01*
X141066876Y-106090980D02*
X141638304Y-106090980D01*
X141352590Y-106090980D02*
X141352590Y-105090980D01*
X141447828Y-105233838D01*
X141543066Y-105329076D01*
X141638304Y-105376695D01*
X140685923Y-105186219D02*
X140638304Y-105138600D01*
X140543066Y-105090980D01*
X140304971Y-105090980D01*
X140209733Y-105138600D01*
X140162114Y-105186219D01*
X140114495Y-105281457D01*
X140114495Y-105376695D01*
X140162114Y-105519552D01*
X140733542Y-106090980D01*
X140114495Y-106090980D01*
X139166504Y-98105980D02*
X139166504Y-98915504D01*
X139118885Y-99010742D01*
X139071266Y-99058361D01*
X138976028Y-99105980D01*
X138785552Y-99105980D01*
X138690314Y-99058361D01*
X138642695Y-99010742D01*
X138595076Y-98915504D01*
X138595076Y-98105980D01*
X137690314Y-98439314D02*
X137690314Y-99105980D01*
X137928409Y-98058361D02*
X138166504Y-98772647D01*
X137547457Y-98772647D01*
X136143542Y-99073857D02*
X136179257Y-99109571D01*
X136286400Y-99145285D01*
X136357828Y-99145285D01*
X136464971Y-99109571D01*
X136536400Y-99038142D01*
X136572114Y-98966714D01*
X136607828Y-98823857D01*
X136607828Y-98716714D01*
X136572114Y-98573857D01*
X136536400Y-98502428D01*
X136464971Y-98431000D01*
X136357828Y-98395285D01*
X136286400Y-98395285D01*
X136179257Y-98431000D01*
X136143542Y-98466714D01*
X135429257Y-99145285D02*
X135857828Y-99145285D01*
X135643542Y-99145285D02*
X135643542Y-98395285D01*
X135714971Y-98502428D01*
X135786400Y-98573857D01*
X135857828Y-98609571D01*
X135179257Y-98395285D02*
X134679257Y-98395285D01*
X135000685Y-99145285D01*
X141866857Y-110669342D02*
X141914476Y-110716961D01*
X142057333Y-110764580D01*
X142152571Y-110764580D01*
X142295428Y-110716961D01*
X142390666Y-110621723D01*
X142438285Y-110526485D01*
X142485904Y-110336009D01*
X142485904Y-110193152D01*
X142438285Y-110002676D01*
X142390666Y-109907438D01*
X142295428Y-109812200D01*
X142152571Y-109764580D01*
X142057333Y-109764580D01*
X141914476Y-109812200D01*
X141866857Y-109859819D01*
X140914476Y-110764580D02*
X141485904Y-110764580D01*
X141200190Y-110764580D02*
X141200190Y-109764580D01*
X141295428Y-109907438D01*
X141390666Y-110002676D01*
X141485904Y-110050295D01*
X140343047Y-110193152D02*
X140438285Y-110145533D01*
X140485904Y-110097914D01*
X140533523Y-110002676D01*
X140533523Y-109955057D01*
X140485904Y-109859819D01*
X140438285Y-109812200D01*
X140343047Y-109764580D01*
X140152571Y-109764580D01*
X140057333Y-109812200D01*
X140009714Y-109859819D01*
X139962095Y-109955057D01*
X139962095Y-110002676D01*
X140009714Y-110097914D01*
X140057333Y-110145533D01*
X140152571Y-110193152D01*
X140343047Y-110193152D01*
X140438285Y-110240771D01*
X140485904Y-110288390D01*
X140533523Y-110383628D01*
X140533523Y-110574104D01*
X140485904Y-110669342D01*
X140438285Y-110716961D01*
X140343047Y-110764580D01*
X140152571Y-110764580D01*
X140057333Y-110716961D01*
X140009714Y-110669342D01*
X139962095Y-110574104D01*
X139962095Y-110383628D01*
X140009714Y-110288390D01*
X140057333Y-110240771D01*
X140152571Y-110193152D01*
X181363857Y-137030342D02*
X181411476Y-137077961D01*
X181554333Y-137125580D01*
X181649571Y-137125580D01*
X181792428Y-137077961D01*
X181887666Y-136982723D01*
X181935285Y-136887485D01*
X181982904Y-136697009D01*
X181982904Y-136554152D01*
X181935285Y-136363676D01*
X181887666Y-136268438D01*
X181792428Y-136173200D01*
X181649571Y-136125580D01*
X181554333Y-136125580D01*
X181411476Y-136173200D01*
X181363857Y-136220819D01*
X180411476Y-137125580D02*
X180982904Y-137125580D01*
X180697190Y-137125580D02*
X180697190Y-136125580D01*
X180792428Y-136268438D01*
X180887666Y-136363676D01*
X180982904Y-136411295D01*
X179935285Y-137125580D02*
X179744809Y-137125580D01*
X179649571Y-137077961D01*
X179601952Y-137030342D01*
X179506714Y-136887485D01*
X179459095Y-136697009D01*
X179459095Y-136316057D01*
X179506714Y-136220819D01*
X179554333Y-136173200D01*
X179649571Y-136125580D01*
X179840047Y-136125580D01*
X179935285Y-136173200D01*
X179982904Y-136220819D01*
X180030523Y-136316057D01*
X180030523Y-136554152D01*
X179982904Y-136649390D01*
X179935285Y-136697009D01*
X179840047Y-136744628D01*
X179649571Y-136744628D01*
X179554333Y-136697009D01*
X179506714Y-136649390D01*
X179459095Y-136554152D01*
X178341257Y-123371780D02*
X178674590Y-122895590D01*
X178912685Y-123371780D02*
X178912685Y-122371780D01*
X178531733Y-122371780D01*
X178436495Y-122419400D01*
X178388876Y-122467019D01*
X178341257Y-122562257D01*
X178341257Y-122705114D01*
X178388876Y-122800352D01*
X178436495Y-122847971D01*
X178531733Y-122895590D01*
X178912685Y-122895590D01*
X177388876Y-123371780D02*
X177960304Y-123371780D01*
X177674590Y-123371780D02*
X177674590Y-122371780D01*
X177769828Y-122514638D01*
X177865066Y-122609876D01*
X177960304Y-122657495D01*
X177007923Y-122467019D02*
X176960304Y-122419400D01*
X176865066Y-122371780D01*
X176626971Y-122371780D01*
X176531733Y-122419400D01*
X176484114Y-122467019D01*
X176436495Y-122562257D01*
X176436495Y-122657495D01*
X176484114Y-122800352D01*
X177055542Y-123371780D01*
X176436495Y-123371780D01*
X193536866Y-71680342D02*
X193584485Y-71727961D01*
X193727342Y-71775580D01*
X193822580Y-71775580D01*
X193965438Y-71727961D01*
X194060676Y-71632723D01*
X194108295Y-71537485D01*
X194155914Y-71347009D01*
X194155914Y-71204152D01*
X194108295Y-71013676D01*
X194060676Y-70918438D01*
X193965438Y-70823200D01*
X193822580Y-70775580D01*
X193727342Y-70775580D01*
X193584485Y-70823200D01*
X193536866Y-70870819D01*
X192584485Y-71775580D02*
X193155914Y-71775580D01*
X192870200Y-71775580D02*
X192870200Y-70775580D01*
X192965438Y-70918438D01*
X193060676Y-71013676D01*
X193155914Y-71061295D01*
X139246780Y-136002733D02*
X139246780Y-135526542D01*
X138246780Y-135526542D01*
X139246780Y-136859876D02*
X139246780Y-136288447D01*
X139246780Y-136574161D02*
X138246780Y-136574161D01*
X138389638Y-136478923D01*
X138484876Y-136383685D01*
X138532495Y-136288447D01*
X145638357Y-140205342D02*
X145685976Y-140252961D01*
X145828833Y-140300580D01*
X145924071Y-140300580D01*
X146066928Y-140252961D01*
X146162166Y-140157723D01*
X146209785Y-140062485D01*
X146257404Y-139872009D01*
X146257404Y-139729152D01*
X146209785Y-139538676D01*
X146162166Y-139443438D01*
X146066928Y-139348200D01*
X145924071Y-139300580D01*
X145828833Y-139300580D01*
X145685976Y-139348200D01*
X145638357Y-139395819D01*
X144685976Y-140300580D02*
X145257404Y-140300580D01*
X144971690Y-140300580D02*
X144971690Y-139300580D01*
X145066928Y-139443438D01*
X145162166Y-139538676D01*
X145257404Y-139586295D01*
X143828833Y-139633914D02*
X143828833Y-140300580D01*
X144066928Y-139252961D02*
X144305023Y-139967247D01*
X143685976Y-139967247D01*
X189618857Y-137491742D02*
X189666476Y-137539361D01*
X189809333Y-137586980D01*
X189904571Y-137586980D01*
X190047428Y-137539361D01*
X190142666Y-137444123D01*
X190190285Y-137348885D01*
X190237904Y-137158409D01*
X190237904Y-137015552D01*
X190190285Y-136825076D01*
X190142666Y-136729838D01*
X190047428Y-136634600D01*
X189904571Y-136586980D01*
X189809333Y-136586980D01*
X189666476Y-136634600D01*
X189618857Y-136682219D01*
X188666476Y-137586980D02*
X189237904Y-137586980D01*
X188952190Y-137586980D02*
X188952190Y-136586980D01*
X189047428Y-136729838D01*
X189142666Y-136825076D01*
X189237904Y-136872695D01*
X187761714Y-136586980D02*
X188237904Y-136586980D01*
X188285523Y-137063171D01*
X188237904Y-137015552D01*
X188142666Y-136967933D01*
X187904571Y-136967933D01*
X187809333Y-137015552D01*
X187761714Y-137063171D01*
X187714095Y-137158409D01*
X187714095Y-137396504D01*
X187761714Y-137491742D01*
X187809333Y-137539361D01*
X187904571Y-137586980D01*
X188142666Y-137586980D01*
X188237904Y-137539361D01*
X188285523Y-137491742D01*
X135669257Y-133503942D02*
X135716876Y-133551561D01*
X135859733Y-133599180D01*
X135954971Y-133599180D01*
X136097828Y-133551561D01*
X136193066Y-133456323D01*
X136240685Y-133361085D01*
X136288304Y-133170609D01*
X136288304Y-133027752D01*
X136240685Y-132837276D01*
X136193066Y-132742038D01*
X136097828Y-132646800D01*
X135954971Y-132599180D01*
X135859733Y-132599180D01*
X135716876Y-132646800D01*
X135669257Y-132694419D01*
X135288304Y-132694419D02*
X135240685Y-132646800D01*
X135145447Y-132599180D01*
X134907352Y-132599180D01*
X134812114Y-132646800D01*
X134764495Y-132694419D01*
X134716876Y-132789657D01*
X134716876Y-132884895D01*
X134764495Y-133027752D01*
X135335923Y-133599180D01*
X134716876Y-133599180D01*
X134097828Y-132599180D02*
X134002590Y-132599180D01*
X133907352Y-132646800D01*
X133859733Y-132694419D01*
X133812114Y-132789657D01*
X133764495Y-132980133D01*
X133764495Y-133218228D01*
X133812114Y-133408704D01*
X133859733Y-133503942D01*
X133907352Y-133551561D01*
X134002590Y-133599180D01*
X134097828Y-133599180D01*
X134193066Y-133551561D01*
X134240685Y-133503942D01*
X134288304Y-133408704D01*
X134335923Y-133218228D01*
X134335923Y-132980133D01*
X134288304Y-132789657D01*
X134240685Y-132694419D01*
X134193066Y-132646800D01*
X134097828Y-132599180D01*
X176044742Y-137075942D02*
X176092361Y-137028323D01*
X176139980Y-136885466D01*
X176139980Y-136790228D01*
X176092361Y-136647371D01*
X175997123Y-136552133D01*
X175901885Y-136504514D01*
X175711409Y-136456895D01*
X175568552Y-136456895D01*
X175378076Y-136504514D01*
X175282838Y-136552133D01*
X175187600Y-136647371D01*
X175139980Y-136790228D01*
X175139980Y-136885466D01*
X175187600Y-137028323D01*
X175235219Y-137075942D01*
X175235219Y-137456895D02*
X175187600Y-137504514D01*
X175139980Y-137599752D01*
X175139980Y-137837847D01*
X175187600Y-137933085D01*
X175235219Y-137980704D01*
X175330457Y-138028323D01*
X175425695Y-138028323D01*
X175568552Y-137980704D01*
X176139980Y-137409276D01*
X176139980Y-138028323D01*
X176139980Y-138980704D02*
X176139980Y-138409276D01*
X176139980Y-138694990D02*
X175139980Y-138694990D01*
X175282838Y-138599752D01*
X175378076Y-138504514D01*
X175425695Y-138409276D01*
X135686419Y-62109361D02*
X135638800Y-62014123D01*
X135543561Y-61918885D01*
X135400704Y-61776028D01*
X135353085Y-61680790D01*
X135353085Y-61585552D01*
X135591180Y-61633171D02*
X135543561Y-61537933D01*
X135448323Y-61442695D01*
X135257847Y-61395076D01*
X134924514Y-61395076D01*
X134734038Y-61442695D01*
X134638800Y-61537933D01*
X134591180Y-61633171D01*
X134591180Y-61823647D01*
X134638800Y-61918885D01*
X134734038Y-62014123D01*
X134924514Y-62061742D01*
X135257847Y-62061742D01*
X135448323Y-62014123D01*
X135543561Y-61918885D01*
X135591180Y-61823647D01*
X135591180Y-61633171D01*
X135019752Y-62633171D02*
X134972133Y-62537933D01*
X134924514Y-62490314D01*
X134829276Y-62442695D01*
X134781657Y-62442695D01*
X134686419Y-62490314D01*
X134638800Y-62537933D01*
X134591180Y-62633171D01*
X134591180Y-62823647D01*
X134638800Y-62918885D01*
X134686419Y-62966504D01*
X134781657Y-63014123D01*
X134829276Y-63014123D01*
X134924514Y-62966504D01*
X134972133Y-62918885D01*
X135019752Y-62823647D01*
X135019752Y-62633171D01*
X135067371Y-62537933D01*
X135114990Y-62490314D01*
X135210228Y-62442695D01*
X135400704Y-62442695D01*
X135495942Y-62490314D01*
X135543561Y-62537933D01*
X135591180Y-62633171D01*
X135591180Y-62823647D01*
X135543561Y-62918885D01*
X135495942Y-62966504D01*
X135400704Y-63014123D01*
X135210228Y-63014123D01*
X135114990Y-62966504D01*
X135067371Y-62918885D01*
X135019752Y-62823647D01*
X166663642Y-93800633D02*
X166711261Y-93753014D01*
X166758880Y-93610157D01*
X166758880Y-93514919D01*
X166711261Y-93372061D01*
X166616023Y-93276823D01*
X166520785Y-93229204D01*
X166330309Y-93181585D01*
X166187452Y-93181585D01*
X165996976Y-93229204D01*
X165901738Y-93276823D01*
X165806500Y-93372061D01*
X165758880Y-93514919D01*
X165758880Y-93610157D01*
X165806500Y-93753014D01*
X165854119Y-93800633D01*
X165758880Y-94705395D02*
X165758880Y-94229204D01*
X166235071Y-94181585D01*
X166187452Y-94229204D01*
X166139833Y-94324442D01*
X166139833Y-94562538D01*
X166187452Y-94657776D01*
X166235071Y-94705395D01*
X166330309Y-94753014D01*
X166568404Y-94753014D01*
X166663642Y-94705395D01*
X166711261Y-94657776D01*
X166758880Y-94562538D01*
X166758880Y-94324442D01*
X166711261Y-94229204D01*
X166663642Y-94181585D01*
X161812266Y-91174842D02*
X161859885Y-91222461D01*
X162002742Y-91270080D01*
X162097980Y-91270080D01*
X162240838Y-91222461D01*
X162336076Y-91127223D01*
X162383695Y-91031985D01*
X162431314Y-90841509D01*
X162431314Y-90698652D01*
X162383695Y-90508176D01*
X162336076Y-90412938D01*
X162240838Y-90317700D01*
X162097980Y-90270080D01*
X162002742Y-90270080D01*
X161859885Y-90317700D01*
X161812266Y-90365319D01*
X161478933Y-90270080D02*
X160812266Y-90270080D01*
X161240838Y-91270080D01*
X167893278Y-87613158D02*
X167893278Y-87680502D01*
X167960622Y-87815189D01*
X168027965Y-87882532D01*
X168162652Y-87949876D01*
X168297339Y-87949876D01*
X168398354Y-87916204D01*
X168566713Y-87815189D01*
X168667728Y-87714174D01*
X168768744Y-87545815D01*
X168802415Y-87444800D01*
X168802415Y-87310113D01*
X168735072Y-87175426D01*
X168667728Y-87108082D01*
X168533041Y-87040739D01*
X168465698Y-87040739D01*
X168196324Y-86771364D02*
X168196324Y-86704021D01*
X168162652Y-86603006D01*
X167994293Y-86434647D01*
X167893278Y-86400975D01*
X167825935Y-86400975D01*
X167724919Y-86434647D01*
X167657576Y-86501990D01*
X167590232Y-86636677D01*
X167590232Y-87444800D01*
X167152499Y-87007067D01*
X167522889Y-86097929D02*
X167522889Y-86030586D01*
X167489217Y-85929571D01*
X167320858Y-85761212D01*
X167219843Y-85727540D01*
X167152499Y-85727540D01*
X167051484Y-85761212D01*
X166984141Y-85828555D01*
X166916797Y-85963242D01*
X166916797Y-86771364D01*
X166479064Y-86333632D01*
D14*
X161909071Y-82882249D02*
X161944598Y-82864485D01*
X161997890Y-82864485D01*
X162051181Y-82882249D01*
X162086709Y-82917776D01*
X162104473Y-82953304D01*
X162122237Y-83024359D01*
X162122237Y-83077650D01*
X162104473Y-83148706D01*
X162086709Y-83184233D01*
X162051181Y-83219761D01*
X161997890Y-83237525D01*
X161962362Y-83237525D01*
X161909071Y-83219761D01*
X161891307Y-83201997D01*
X161891307Y-83077650D01*
X161962362Y-83077650D01*
X161660378Y-83059887D02*
X161660378Y-83237525D01*
X161784724Y-82864485D02*
X161660378Y-83059887D01*
X161536031Y-82864485D01*
X161198518Y-83237525D02*
X161322865Y-83059887D01*
X161411684Y-83237525D02*
X161411684Y-82864485D01*
X161269574Y-82864485D01*
X161234046Y-82882249D01*
X161216282Y-82900012D01*
X161198518Y-82935540D01*
X161198518Y-82988831D01*
X161216282Y-83024359D01*
X161234046Y-83042123D01*
X161269574Y-83059887D01*
X161411684Y-83059887D01*
X160967589Y-82864485D02*
X160896534Y-82864485D01*
X160861006Y-82882249D01*
X160825478Y-82917776D01*
X160807715Y-82988831D01*
X160807715Y-83113178D01*
X160825478Y-83184233D01*
X160861006Y-83219761D01*
X160896534Y-83237525D01*
X160967589Y-83237525D01*
X161003117Y-83219761D01*
X161038644Y-83184233D01*
X161056408Y-83113178D01*
X161056408Y-82988831D01*
X161038644Y-82917776D01*
X161003117Y-82882249D01*
X160967589Y-82864485D01*
X160452438Y-83237525D02*
X160665604Y-83237525D01*
X160559021Y-83237525D02*
X160559021Y-82864485D01*
X160594549Y-82917776D01*
X160630077Y-82953304D01*
X160665604Y-82971068D01*
D13*
X159342057Y-91587580D02*
X159675390Y-91111390D01*
X159913485Y-91587580D02*
X159913485Y-90587580D01*
X159532533Y-90587580D01*
X159437295Y-90635200D01*
X159389676Y-90682819D01*
X159342057Y-90778057D01*
X159342057Y-90920914D01*
X159389676Y-91016152D01*
X159437295Y-91063771D01*
X159532533Y-91111390D01*
X159913485Y-91111390D01*
X158961104Y-90682819D02*
X158913485Y-90635200D01*
X158818247Y-90587580D01*
X158580152Y-90587580D01*
X158484914Y-90635200D01*
X158437295Y-90682819D01*
X158389676Y-90778057D01*
X158389676Y-90873295D01*
X158437295Y-91016152D01*
X159008723Y-91587580D01*
X158389676Y-91587580D01*
X157532533Y-90920914D02*
X157532533Y-91587580D01*
X157770628Y-90539961D02*
X158008723Y-91254247D01*
X157389676Y-91254247D01*
X156421033Y-90955880D02*
X156421033Y-91670166D01*
X156468652Y-91813023D01*
X156563890Y-91908261D01*
X156706747Y-91955880D01*
X156801985Y-91955880D01*
X155944842Y-91955880D02*
X155944842Y-90955880D01*
X155563890Y-90955880D01*
X155468652Y-91003500D01*
X155421033Y-91051119D01*
X155373414Y-91146357D01*
X155373414Y-91289214D01*
X155421033Y-91384452D01*
X155468652Y-91432071D01*
X155563890Y-91479690D01*
X155944842Y-91479690D01*
X154468652Y-90955880D02*
X154944842Y-90955880D01*
X154992461Y-91432071D01*
X154944842Y-91384452D01*
X154849604Y-91336833D01*
X154611509Y-91336833D01*
X154516271Y-91384452D01*
X154468652Y-91432071D01*
X154421033Y-91527309D01*
X154421033Y-91765404D01*
X154468652Y-91860642D01*
X154516271Y-91908261D01*
X154611509Y-91955880D01*
X154849604Y-91955880D01*
X154944842Y-91908261D01*
X154992461Y-91860642D01*
X172867580Y-90028733D02*
X172867580Y-89552542D01*
X171867580Y-89552542D01*
X171962819Y-90314447D02*
X171915200Y-90362066D01*
X171867580Y-90457304D01*
X171867580Y-90695400D01*
X171915200Y-90790638D01*
X171962819Y-90838257D01*
X172058057Y-90885876D01*
X172153295Y-90885876D01*
X172296152Y-90838257D01*
X172867580Y-90266828D01*
X172867580Y-90885876D01*
X190028580Y-113276166D02*
X190742866Y-113276166D01*
X190885723Y-113228547D01*
X190980961Y-113133309D01*
X191028580Y-112990452D01*
X191028580Y-112895214D01*
X191028580Y-113752357D02*
X190028580Y-113752357D01*
X190028580Y-114133309D01*
X190076200Y-114228547D01*
X190123819Y-114276166D01*
X190219057Y-114323785D01*
X190361914Y-114323785D01*
X190457152Y-114276166D01*
X190504771Y-114228547D01*
X190552390Y-114133309D01*
X190552390Y-113752357D01*
X190028580Y-115180928D02*
X190028580Y-114990452D01*
X190076200Y-114895214D01*
X190123819Y-114847595D01*
X190266676Y-114752357D01*
X190457152Y-114704738D01*
X190838104Y-114704738D01*
X190933342Y-114752357D01*
X190980961Y-114799976D01*
X191028580Y-114895214D01*
X191028580Y-115085690D01*
X190980961Y-115180928D01*
X190933342Y-115228547D01*
X190838104Y-115276166D01*
X190600009Y-115276166D01*
X190504771Y-115228547D01*
X190457152Y-115180928D01*
X190409533Y-115085690D01*
X190409533Y-114895214D01*
X190457152Y-114799976D01*
X190504771Y-114752357D01*
X190600009Y-114704738D01*
X191240019Y-111385361D02*
X191192400Y-111290123D01*
X191097161Y-111194885D01*
X190954304Y-111052028D01*
X190906685Y-110956790D01*
X190906685Y-110861552D01*
X191144780Y-110909171D02*
X191097161Y-110813933D01*
X191001923Y-110718695D01*
X190811447Y-110671076D01*
X190478114Y-110671076D01*
X190287638Y-110718695D01*
X190192400Y-110813933D01*
X190144780Y-110909171D01*
X190144780Y-111099647D01*
X190192400Y-111194885D01*
X190287638Y-111290123D01*
X190478114Y-111337742D01*
X190811447Y-111337742D01*
X191001923Y-111290123D01*
X191097161Y-111194885D01*
X191144780Y-111099647D01*
X191144780Y-110909171D01*
X190478114Y-112194885D02*
X191144780Y-112194885D01*
X190097161Y-111956790D02*
X190811447Y-111718695D01*
X190811447Y-112337742D01*
X191621580Y-105884742D02*
X191145390Y-105551409D01*
X191621580Y-105313314D02*
X190621580Y-105313314D01*
X190621580Y-105694266D01*
X190669200Y-105789504D01*
X190716819Y-105837123D01*
X190812057Y-105884742D01*
X190954914Y-105884742D01*
X191050152Y-105837123D01*
X191097771Y-105789504D01*
X191145390Y-105694266D01*
X191145390Y-105313314D01*
X190716819Y-106265695D02*
X190669200Y-106313314D01*
X190621580Y-106408552D01*
X190621580Y-106646647D01*
X190669200Y-106741885D01*
X190716819Y-106789504D01*
X190812057Y-106837123D01*
X190907295Y-106837123D01*
X191050152Y-106789504D01*
X191621580Y-106218076D01*
X191621580Y-106837123D01*
X190621580Y-107741885D02*
X190621580Y-107265695D01*
X191097771Y-107218076D01*
X191050152Y-107265695D01*
X191002533Y-107360933D01*
X191002533Y-107599028D01*
X191050152Y-107694266D01*
X191097771Y-107741885D01*
X191193009Y-107789504D01*
X191431104Y-107789504D01*
X191526342Y-107741885D01*
X191573961Y-107694266D01*
X191621580Y-107599028D01*
X191621580Y-107360933D01*
X191573961Y-107265695D01*
X191526342Y-107218076D01*
%LPC*%
G36*
G01*
X183882400Y-71712800D02*
X182182400Y-71712800D01*
G75*
G02*
X181982400Y-71512800I0J200000D01*
G01*
X181982400Y-69812800D01*
G75*
G02*
X182182400Y-69612800I200000J0D01*
G01*
X183882400Y-69612800D01*
G75*
G02*
X184082400Y-69812800I0J-200000D01*
G01*
X184082400Y-71512800D01*
G75*
G02*
X183882400Y-71712800I-200000J0D01*
G01*
G37*
D15*
X185572400Y-70662800D03*
G36*
G01*
X201532200Y-116955200D02*
X201532200Y-118655200D01*
G75*
G02*
X201332200Y-118855200I-200000J0D01*
G01*
X199632200Y-118855200D01*
G75*
G02*
X199432200Y-118655200I0J200000D01*
G01*
X199432200Y-116955200D01*
G75*
G02*
X199632200Y-116755200I200000J0D01*
G01*
X201332200Y-116755200D01*
G75*
G02*
X201532200Y-116955200I0J-200000D01*
G01*
G37*
X200482200Y-115265200D03*
X200482200Y-112725200D03*
X200482200Y-110185200D03*
X200482200Y-107645200D03*
X200482200Y-105105200D03*
D16*
X168198800Y-100253800D03*
X151790400Y-100253800D03*
G36*
G01*
X128663400Y-59475321D02*
X128663400Y-60971479D01*
G75*
G02*
X128336479Y-61298400I-326921J0D01*
G01*
X127290321Y-61298400D01*
G75*
G02*
X126963400Y-60971479I0J326921D01*
G01*
X126963400Y-59475321D01*
G75*
G02*
X127290321Y-59148400I326921J0D01*
G01*
X128336479Y-59148400D01*
G75*
G02*
X128663400Y-59475321I0J-326921D01*
G01*
G37*
G36*
G01*
X125563400Y-59475321D02*
X125563400Y-60971479D01*
G75*
G02*
X125236479Y-61298400I-326921J0D01*
G01*
X124190321Y-61298400D01*
G75*
G02*
X123863400Y-60971479I0J326921D01*
G01*
X123863400Y-59475321D01*
G75*
G02*
X124190321Y-59148400I326921J0D01*
G01*
X125236479Y-59148400D01*
G75*
G02*
X125563400Y-59475321I0J-326921D01*
G01*
G37*
G36*
G01*
X118479521Y-61736200D02*
X119975679Y-61736200D01*
G75*
G02*
X120302600Y-62063121I0J-326921D01*
G01*
X120302600Y-63109279D01*
G75*
G02*
X119975679Y-63436200I-326921J0D01*
G01*
X118479521Y-63436200D01*
G75*
G02*
X118152600Y-63109279I0J326921D01*
G01*
X118152600Y-62063121D01*
G75*
G02*
X118479521Y-61736200I326921J0D01*
G01*
G37*
G36*
G01*
X118479521Y-58636200D02*
X119975679Y-58636200D01*
G75*
G02*
X120302600Y-58963121I0J-326921D01*
G01*
X120302600Y-60009279D01*
G75*
G02*
X119975679Y-60336200I-326921J0D01*
G01*
X118479521Y-60336200D01*
G75*
G02*
X118152600Y-60009279I0J326921D01*
G01*
X118152600Y-58963121D01*
G75*
G02*
X118479521Y-58636200I326921J0D01*
G01*
G37*
G36*
G01*
X121603721Y-58661000D02*
X123099879Y-58661000D01*
G75*
G02*
X123426800Y-58987921I0J-326921D01*
G01*
X123426800Y-60034079D01*
G75*
G02*
X123099879Y-60361000I-326921J0D01*
G01*
X121603721Y-60361000D01*
G75*
G02*
X121276800Y-60034079I0J326921D01*
G01*
X121276800Y-58987921D01*
G75*
G02*
X121603721Y-58661000I326921J0D01*
G01*
G37*
G36*
G01*
X121603721Y-61761000D02*
X123099879Y-61761000D01*
G75*
G02*
X123426800Y-62087921I0J-326921D01*
G01*
X123426800Y-63134079D01*
G75*
G02*
X123099879Y-63461000I-326921J0D01*
G01*
X121603721Y-63461000D01*
G75*
G02*
X121276800Y-63134079I0J326921D01*
G01*
X121276800Y-62087921D01*
G75*
G02*
X121603721Y-61761000I326921J0D01*
G01*
G37*
X160083500Y-64262000D03*
X160020000Y-139954000D03*
X160096200Y-56413400D03*
X160020000Y-147828000D03*
G36*
G01*
X129201922Y-63424414D02*
X129549218Y-65394030D01*
G75*
G02*
X129386986Y-65625722I-196962J-34730D01*
G01*
X127417370Y-65973018D01*
G75*
G02*
X127185678Y-65810786I-34730J196962D01*
G01*
X126838382Y-63841170D01*
G75*
G02*
X127000614Y-63609478I196962J34730D01*
G01*
X128970230Y-63262182D01*
G75*
G02*
X129201922Y-63424414I34730J-196962D01*
G01*
G37*
D17*
X120709261Y-65937326D03*
G36*
G01*
X125438575Y-61554370D02*
X127170625Y-62554370D01*
G75*
G02*
X127243830Y-62827575I-100000J-173205D01*
G01*
X126243830Y-64559625D01*
G75*
G02*
X125970625Y-64632830I-173205J100000D01*
G01*
X124238575Y-63632830D01*
G75*
G02*
X124165370Y-63359625I100000J173205D01*
G01*
X125165370Y-61627575D01*
G75*
G02*
X125438575Y-61554370I173205J-100000D01*
G01*
G37*
X123204600Y-67423727D03*
G36*
G01*
X193049400Y-61074400D02*
X193049400Y-62674400D01*
G75*
G02*
X192849400Y-62874400I-200000J0D01*
G01*
X191249400Y-62874400D01*
G75*
G02*
X191049400Y-62674400I0J200000D01*
G01*
X191049400Y-61074400D01*
G75*
G02*
X191249400Y-60874400I200000J0D01*
G01*
X192849400Y-60874400D01*
G75*
G02*
X193049400Y-61074400I0J-200000D01*
G01*
G37*
D18*
X189549400Y-61874400D03*
G36*
G01*
X136360600Y-63614133D02*
X136360600Y-62065067D01*
G75*
G02*
X136686067Y-61739600I325467J0D01*
G01*
X137760133Y-61739600D01*
G75*
G02*
X138085600Y-62065067I0J-325467D01*
G01*
X138085600Y-63614133D01*
G75*
G02*
X137760133Y-63939600I-325467J0D01*
G01*
X136686067Y-63939600D01*
G75*
G02*
X136360600Y-63614133I0J325467D01*
G01*
G37*
G36*
G01*
X139485600Y-63614133D02*
X139485600Y-62065067D01*
G75*
G02*
X139811067Y-61739600I325467J0D01*
G01*
X140885133Y-61739600D01*
G75*
G02*
X141210600Y-62065067I0J-325467D01*
G01*
X141210600Y-63614133D01*
G75*
G02*
X140885133Y-63939600I-325467J0D01*
G01*
X139811067Y-63939600D01*
G75*
G02*
X139485600Y-63614133I0J325467D01*
G01*
G37*
G36*
G01*
X154774733Y-66712400D02*
X153225667Y-66712400D01*
G75*
G02*
X152900200Y-66386933I0J325467D01*
G01*
X152900200Y-65312867D01*
G75*
G02*
X153225667Y-64987400I325467J0D01*
G01*
X154774733Y-64987400D01*
G75*
G02*
X155100200Y-65312867I0J-325467D01*
G01*
X155100200Y-66386933D01*
G75*
G02*
X154774733Y-66712400I-325467J0D01*
G01*
G37*
G36*
G01*
X154774733Y-63587400D02*
X153225667Y-63587400D01*
G75*
G02*
X152900200Y-63261933I0J325467D01*
G01*
X152900200Y-62187867D01*
G75*
G02*
X153225667Y-61862400I325467J0D01*
G01*
X154774733Y-61862400D01*
G75*
G02*
X155100200Y-62187867I0J-325467D01*
G01*
X155100200Y-63261933D01*
G75*
G02*
X154774733Y-63587400I-325467J0D01*
G01*
G37*
G36*
G01*
X121781800Y-113546000D02*
X121781800Y-114546000D01*
G75*
G02*
X121581800Y-114746000I-200000J0D01*
G01*
X120581800Y-114746000D01*
G75*
G02*
X120381800Y-114546000I0J200000D01*
G01*
X120381800Y-113546000D01*
G75*
G02*
X120581800Y-113346000I200000J0D01*
G01*
X121581800Y-113346000D01*
G75*
G02*
X121781800Y-113546000I0J-200000D01*
G01*
G37*
D19*
X119811800Y-114046000D03*
X121081800Y-112776000D03*
X119811800Y-112776000D03*
X121081800Y-111506000D03*
X119811800Y-111506000D03*
X121081800Y-110236000D03*
X119811800Y-110236000D03*
X121081800Y-108966000D03*
X119811800Y-108966000D03*
G36*
G01*
X126204000Y-107225200D02*
X126204000Y-105525200D01*
G75*
G02*
X126404000Y-105325200I200000J0D01*
G01*
X128104000Y-105325200D01*
G75*
G02*
X128304000Y-105525200I0J-200000D01*
G01*
X128304000Y-107225200D01*
G75*
G02*
X128104000Y-107425200I-200000J0D01*
G01*
X126404000Y-107425200D01*
G75*
G02*
X126204000Y-107225200I0J200000D01*
G01*
G37*
D15*
X127254000Y-108915200D03*
X127254000Y-111455200D03*
X127254000Y-113995200D03*
X127254000Y-116535200D03*
G36*
G01*
X124232200Y-112433800D02*
X124232200Y-110933800D01*
G75*
G02*
X124432200Y-110733800I200000J0D01*
G01*
X125432200Y-110733800D01*
G75*
G02*
X125632200Y-110933800I0J-200000D01*
G01*
X125632200Y-112433800D01*
G75*
G02*
X125432200Y-112633800I-200000J0D01*
G01*
X124432200Y-112633800D01*
G75*
G02*
X124232200Y-112433800I0J200000D01*
G01*
G37*
G36*
G01*
X122932200Y-112433800D02*
X122932200Y-110933800D01*
G75*
G02*
X123132200Y-110733800I200000J0D01*
G01*
X124132200Y-110733800D01*
G75*
G02*
X124332200Y-110933800I0J-200000D01*
G01*
X124332200Y-112433800D01*
G75*
G02*
X124132200Y-112633800I-200000J0D01*
G01*
X123132200Y-112633800D01*
G75*
G02*
X122932200Y-112433800I0J200000D01*
G01*
G37*
G36*
G01*
X123875000Y-108139800D02*
X123875000Y-109639800D01*
G75*
G02*
X123675000Y-109839800I-200000J0D01*
G01*
X122675000Y-109839800D01*
G75*
G02*
X122475000Y-109639800I0J200000D01*
G01*
X122475000Y-108139800D01*
G75*
G02*
X122675000Y-107939800I200000J0D01*
G01*
X123675000Y-107939800D01*
G75*
G02*
X123875000Y-108139800I0J-200000D01*
G01*
G37*
G36*
G01*
X125175000Y-108139800D02*
X125175000Y-109639800D01*
G75*
G02*
X124975000Y-109839800I-200000J0D01*
G01*
X123975000Y-109839800D01*
G75*
G02*
X123775000Y-109639800I0J200000D01*
G01*
X123775000Y-108139800D01*
G75*
G02*
X123975000Y-107939800I200000J0D01*
G01*
X124975000Y-107939800D01*
G75*
G02*
X125175000Y-108139800I0J-200000D01*
G01*
G37*
G36*
G01*
X125327400Y-114820000D02*
X125327400Y-116320000D01*
G75*
G02*
X125127400Y-116520000I-200000J0D01*
G01*
X124127400Y-116520000D01*
G75*
G02*
X123927400Y-116320000I0J200000D01*
G01*
X123927400Y-114820000D01*
G75*
G02*
X124127400Y-114620000I200000J0D01*
G01*
X125127400Y-114620000D01*
G75*
G02*
X125327400Y-114820000I0J-200000D01*
G01*
G37*
G36*
G01*
X124027400Y-114820000D02*
X124027400Y-116320000D01*
G75*
G02*
X123827400Y-116520000I-200000J0D01*
G01*
X122827400Y-116520000D01*
G75*
G02*
X122627400Y-116320000I0J200000D01*
G01*
X122627400Y-114820000D01*
G75*
G02*
X122827400Y-114620000I200000J0D01*
G01*
X123827400Y-114620000D01*
G75*
G02*
X124027400Y-114820000I0J-200000D01*
G01*
G37*
G36*
G01*
X191324000Y-119266921D02*
X191324000Y-120763079D01*
G75*
G02*
X190997079Y-121090000I-326921J0D01*
G01*
X189950921Y-121090000D01*
G75*
G02*
X189624000Y-120763079I0J326921D01*
G01*
X189624000Y-119266921D01*
G75*
G02*
X189950921Y-118940000I326921J0D01*
G01*
X190997079Y-118940000D01*
G75*
G02*
X191324000Y-119266921I0J-326921D01*
G01*
G37*
G36*
G01*
X194424000Y-119266921D02*
X194424000Y-120763079D01*
G75*
G02*
X194097079Y-121090000I-326921J0D01*
G01*
X193050921Y-121090000D01*
G75*
G02*
X192724000Y-120763079I0J326921D01*
G01*
X192724000Y-119266921D01*
G75*
G02*
X193050921Y-118940000I326921J0D01*
G01*
X194097079Y-118940000D01*
G75*
G02*
X194424000Y-119266921I0J-326921D01*
G01*
G37*
G36*
G01*
X166279879Y-138517400D02*
X164783721Y-138517400D01*
G75*
G02*
X164456800Y-138190479I0J326921D01*
G01*
X164456800Y-137144321D01*
G75*
G02*
X164783721Y-136817400I326921J0D01*
G01*
X166279879Y-136817400D01*
G75*
G02*
X166606800Y-137144321I0J-326921D01*
G01*
X166606800Y-138190479D01*
G75*
G02*
X166279879Y-138517400I-326921J0D01*
G01*
G37*
G36*
G01*
X166279879Y-141617400D02*
X164783721Y-141617400D01*
G75*
G02*
X164456800Y-141290479I0J326921D01*
G01*
X164456800Y-140244321D01*
G75*
G02*
X164783721Y-139917400I326921J0D01*
G01*
X166279879Y-139917400D01*
G75*
G02*
X166606800Y-140244321I0J-326921D01*
G01*
X166606800Y-141290479D01*
G75*
G02*
X166279879Y-141617400I-326921J0D01*
G01*
G37*
G36*
G01*
X128716000Y-120661479D02*
X128716000Y-119165321D01*
G75*
G02*
X129042921Y-118838400I326921J0D01*
G01*
X130089079Y-118838400D01*
G75*
G02*
X130416000Y-119165321I0J-326921D01*
G01*
X130416000Y-120661479D01*
G75*
G02*
X130089079Y-120988400I-326921J0D01*
G01*
X129042921Y-120988400D01*
G75*
G02*
X128716000Y-120661479I0J326921D01*
G01*
G37*
G36*
G01*
X125616000Y-120661479D02*
X125616000Y-119165321D01*
G75*
G02*
X125942921Y-118838400I326921J0D01*
G01*
X126989079Y-118838400D01*
G75*
G02*
X127316000Y-119165321I0J-326921D01*
G01*
X127316000Y-120661479D01*
G75*
G02*
X126989079Y-120988400I-326921J0D01*
G01*
X125942921Y-120988400D01*
G75*
G02*
X125616000Y-120661479I0J326921D01*
G01*
G37*
G36*
G01*
X155154679Y-141642800D02*
X153658521Y-141642800D01*
G75*
G02*
X153331600Y-141315879I0J326921D01*
G01*
X153331600Y-140269721D01*
G75*
G02*
X153658521Y-139942800I326921J0D01*
G01*
X155154679Y-139942800D01*
G75*
G02*
X155481600Y-140269721I0J-326921D01*
G01*
X155481600Y-141315879D01*
G75*
G02*
X155154679Y-141642800I-326921J0D01*
G01*
G37*
G36*
G01*
X155154679Y-138542800D02*
X153658521Y-138542800D01*
G75*
G02*
X153331600Y-138215879I0J326921D01*
G01*
X153331600Y-137169721D01*
G75*
G02*
X153658521Y-136842800I326921J0D01*
G01*
X155154679Y-136842800D01*
G75*
G02*
X155481600Y-137169721I0J-326921D01*
G01*
X155481600Y-138215879D01*
G75*
G02*
X155154679Y-138542800I-326921J0D01*
G01*
G37*
G36*
G01*
X131126279Y-104887800D02*
X129630121Y-104887800D01*
G75*
G02*
X129303200Y-104560879I0J326921D01*
G01*
X129303200Y-103514721D01*
G75*
G02*
X129630121Y-103187800I326921J0D01*
G01*
X131126279Y-103187800D01*
G75*
G02*
X131453200Y-103514721I0J-326921D01*
G01*
X131453200Y-104560879D01*
G75*
G02*
X131126279Y-104887800I-326921J0D01*
G01*
G37*
G36*
G01*
X131126279Y-107987800D02*
X129630121Y-107987800D01*
G75*
G02*
X129303200Y-107660879I0J326921D01*
G01*
X129303200Y-106614721D01*
G75*
G02*
X129630121Y-106287800I326921J0D01*
G01*
X131126279Y-106287800D01*
G75*
G02*
X131453200Y-106614721I0J-326921D01*
G01*
X131453200Y-107660879D01*
G75*
G02*
X131126279Y-107987800I-326921J0D01*
G01*
G37*
G36*
G01*
X133590079Y-107962400D02*
X132093921Y-107962400D01*
G75*
G02*
X131767000Y-107635479I0J326921D01*
G01*
X131767000Y-106589321D01*
G75*
G02*
X132093921Y-106262400I326921J0D01*
G01*
X133590079Y-106262400D01*
G75*
G02*
X133917000Y-106589321I0J-326921D01*
G01*
X133917000Y-107635479D01*
G75*
G02*
X133590079Y-107962400I-326921J0D01*
G01*
G37*
G36*
G01*
X133590079Y-104862400D02*
X132093921Y-104862400D01*
G75*
G02*
X131767000Y-104535479I0J326921D01*
G01*
X131767000Y-103489321D01*
G75*
G02*
X132093921Y-103162400I326921J0D01*
G01*
X133590079Y-103162400D01*
G75*
G02*
X133917000Y-103489321I0J-326921D01*
G01*
X133917000Y-104535479D01*
G75*
G02*
X133590079Y-104862400I-326921J0D01*
G01*
G37*
G36*
G01*
X131253279Y-56754800D02*
X129757121Y-56754800D01*
G75*
G02*
X129430200Y-56427879I0J326921D01*
G01*
X129430200Y-55381721D01*
G75*
G02*
X129757121Y-55054800I326921J0D01*
G01*
X131253279Y-55054800D01*
G75*
G02*
X131580200Y-55381721I0J-326921D01*
G01*
X131580200Y-56427879D01*
G75*
G02*
X131253279Y-56754800I-326921J0D01*
G01*
G37*
G36*
G01*
X131253279Y-59854800D02*
X129757121Y-59854800D01*
G75*
G02*
X129430200Y-59527879I0J326921D01*
G01*
X129430200Y-58481721D01*
G75*
G02*
X129757121Y-58154800I326921J0D01*
G01*
X131253279Y-58154800D01*
G75*
G02*
X131580200Y-58481721I0J-326921D01*
G01*
X131580200Y-59527879D01*
G75*
G02*
X131253279Y-59854800I-326921J0D01*
G01*
G37*
G36*
G01*
X188784279Y-128561800D02*
X187288121Y-128561800D01*
G75*
G02*
X186961200Y-128234879I0J326921D01*
G01*
X186961200Y-127188721D01*
G75*
G02*
X187288121Y-126861800I326921J0D01*
G01*
X188784279Y-126861800D01*
G75*
G02*
X189111200Y-127188721I0J-326921D01*
G01*
X189111200Y-128234879D01*
G75*
G02*
X188784279Y-128561800I-326921J0D01*
G01*
G37*
G36*
G01*
X188784279Y-125461800D02*
X187288121Y-125461800D01*
G75*
G02*
X186961200Y-125134879I0J326921D01*
G01*
X186961200Y-124088721D01*
G75*
G02*
X187288121Y-123761800I326921J0D01*
G01*
X188784279Y-123761800D01*
G75*
G02*
X189111200Y-124088721I0J-326921D01*
G01*
X189111200Y-125134879D01*
G75*
G02*
X188784279Y-125461800I-326921J0D01*
G01*
G37*
G36*
G01*
X169127121Y-132550200D02*
X170623279Y-132550200D01*
G75*
G02*
X170950200Y-132877121I0J-326921D01*
G01*
X170950200Y-133923279D01*
G75*
G02*
X170623279Y-134250200I-326921J0D01*
G01*
X169127121Y-134250200D01*
G75*
G02*
X168800200Y-133923279I0J326921D01*
G01*
X168800200Y-132877121D01*
G75*
G02*
X169127121Y-132550200I326921J0D01*
G01*
G37*
G36*
G01*
X169127121Y-135650200D02*
X170623279Y-135650200D01*
G75*
G02*
X170950200Y-135977121I0J-326921D01*
G01*
X170950200Y-137023279D01*
G75*
G02*
X170623279Y-137350200I-326921J0D01*
G01*
X169127121Y-137350200D01*
G75*
G02*
X168800200Y-137023279I0J326921D01*
G01*
X168800200Y-135977121D01*
G75*
G02*
X169127121Y-135650200I326921J0D01*
G01*
G37*
G36*
G01*
X132957521Y-120155000D02*
X134453679Y-120155000D01*
G75*
G02*
X134780600Y-120481921I0J-326921D01*
G01*
X134780600Y-121528079D01*
G75*
G02*
X134453679Y-121855000I-326921J0D01*
G01*
X132957521Y-121855000D01*
G75*
G02*
X132630600Y-121528079I0J326921D01*
G01*
X132630600Y-120481921D01*
G75*
G02*
X132957521Y-120155000I326921J0D01*
G01*
G37*
G36*
G01*
X132957521Y-123255000D02*
X134453679Y-123255000D01*
G75*
G02*
X134780600Y-123581921I0J-326921D01*
G01*
X134780600Y-124628079D01*
G75*
G02*
X134453679Y-124955000I-326921J0D01*
G01*
X132957521Y-124955000D01*
G75*
G02*
X132630600Y-124628079I0J326921D01*
G01*
X132630600Y-123581921D01*
G75*
G02*
X132957521Y-123255000I326921J0D01*
G01*
G37*
G36*
G01*
X158205121Y-132321600D02*
X159701279Y-132321600D01*
G75*
G02*
X160028200Y-132648521I0J-326921D01*
G01*
X160028200Y-133694679D01*
G75*
G02*
X159701279Y-134021600I-326921J0D01*
G01*
X158205121Y-134021600D01*
G75*
G02*
X157878200Y-133694679I0J326921D01*
G01*
X157878200Y-132648521D01*
G75*
G02*
X158205121Y-132321600I326921J0D01*
G01*
G37*
G36*
G01*
X158205121Y-135421600D02*
X159701279Y-135421600D01*
G75*
G02*
X160028200Y-135748521I0J-326921D01*
G01*
X160028200Y-136794679D01*
G75*
G02*
X159701279Y-137121600I-326921J0D01*
G01*
X158205121Y-137121600D01*
G75*
G02*
X157878200Y-136794679I0J326921D01*
G01*
X157878200Y-135748521D01*
G75*
G02*
X158205121Y-135421600I326921J0D01*
G01*
G37*
G36*
G01*
X133310679Y-65822600D02*
X131814521Y-65822600D01*
G75*
G02*
X131487600Y-65495679I0J326921D01*
G01*
X131487600Y-64449521D01*
G75*
G02*
X131814521Y-64122600I326921J0D01*
G01*
X133310679Y-64122600D01*
G75*
G02*
X133637600Y-64449521I0J-326921D01*
G01*
X133637600Y-65495679D01*
G75*
G02*
X133310679Y-65822600I-326921J0D01*
G01*
G37*
G36*
G01*
X133310679Y-68922600D02*
X131814521Y-68922600D01*
G75*
G02*
X131487600Y-68595679I0J326921D01*
G01*
X131487600Y-67549521D01*
G75*
G02*
X131814521Y-67222600I326921J0D01*
G01*
X133310679Y-67222600D01*
G75*
G02*
X133637600Y-67549521I0J-326921D01*
G01*
X133637600Y-68595679D01*
G75*
G02*
X133310679Y-68922600I-326921J0D01*
G01*
G37*
G36*
G01*
X128995300Y-67100144D02*
X128247221Y-68395855D01*
G75*
G02*
X127800638Y-68515517I-283122J163460D01*
G01*
X126894639Y-67992438D01*
G75*
G02*
X126774978Y-67545856I163461J283122D01*
G01*
X127523057Y-66250145D01*
G75*
G02*
X127969640Y-66130483I283122J-163460D01*
G01*
X128875639Y-66653562D01*
G75*
G02*
X128995300Y-67100144I-163461J-283122D01*
G01*
G37*
G36*
G01*
X126310622Y-65550144D02*
X125562543Y-66845855D01*
G75*
G02*
X125115960Y-66965517I-283122J163460D01*
G01*
X124209961Y-66442438D01*
G75*
G02*
X124090300Y-65995856I163461J283122D01*
G01*
X124838379Y-64700145D01*
G75*
G02*
X125284962Y-64580483I283122J-163460D01*
G01*
X126190961Y-65103562D01*
G75*
G02*
X126310622Y-65550144I-163461J-283122D01*
G01*
G37*
G36*
G01*
X156985921Y-121146800D02*
X158482079Y-121146800D01*
G75*
G02*
X158809000Y-121473721I0J-326921D01*
G01*
X158809000Y-122519879D01*
G75*
G02*
X158482079Y-122846800I-326921J0D01*
G01*
X156985921Y-122846800D01*
G75*
G02*
X156659000Y-122519879I0J326921D01*
G01*
X156659000Y-121473721D01*
G75*
G02*
X156985921Y-121146800I326921J0D01*
G01*
G37*
G36*
G01*
X156985921Y-118046800D02*
X158482079Y-118046800D01*
G75*
G02*
X158809000Y-118373721I0J-326921D01*
G01*
X158809000Y-119419879D01*
G75*
G02*
X158482079Y-119746800I-326921J0D01*
G01*
X156985921Y-119746800D01*
G75*
G02*
X156659000Y-119419879I0J326921D01*
G01*
X156659000Y-118373721D01*
G75*
G02*
X156985921Y-118046800I326921J0D01*
G01*
G37*
G36*
G01*
X155688079Y-122846800D02*
X154191921Y-122846800D01*
G75*
G02*
X153865000Y-122519879I0J326921D01*
G01*
X153865000Y-121473721D01*
G75*
G02*
X154191921Y-121146800I326921J0D01*
G01*
X155688079Y-121146800D01*
G75*
G02*
X156015000Y-121473721I0J-326921D01*
G01*
X156015000Y-122519879D01*
G75*
G02*
X155688079Y-122846800I-326921J0D01*
G01*
G37*
G36*
G01*
X155688079Y-119746800D02*
X154191921Y-119746800D01*
G75*
G02*
X153865000Y-119419879I0J326921D01*
G01*
X153865000Y-118373721D01*
G75*
G02*
X154191921Y-118046800I326921J0D01*
G01*
X155688079Y-118046800D01*
G75*
G02*
X156015000Y-118373721I0J-326921D01*
G01*
X156015000Y-119419879D01*
G75*
G02*
X155688079Y-119746800I-326921J0D01*
G01*
G37*
D20*
X198196200Y-63119000D03*
X198196200Y-67945000D03*
X198196200Y-58293000D03*
G36*
G01*
X191885200Y-55515800D02*
X193585200Y-55515800D01*
G75*
G02*
X193785200Y-55715800I0J-200000D01*
G01*
X193785200Y-57415800D01*
G75*
G02*
X193585200Y-57615800I-200000J0D01*
G01*
X191885200Y-57615800D01*
G75*
G02*
X191685200Y-57415800I0J200000D01*
G01*
X191685200Y-55715800D01*
G75*
G02*
X191885200Y-55515800I200000J0D01*
G01*
G37*
G36*
G01*
X137778200Y-137453000D02*
X137778200Y-139153000D01*
G75*
G02*
X137578200Y-139353000I-200000J0D01*
G01*
X135878200Y-139353000D01*
G75*
G02*
X135678200Y-139153000I0J200000D01*
G01*
X135678200Y-137453000D01*
G75*
G02*
X135878200Y-137253000I200000J0D01*
G01*
X137578200Y-137253000D01*
G75*
G02*
X137778200Y-137453000I0J-200000D01*
G01*
G37*
G36*
G01*
X138112400Y-69199000D02*
X136512400Y-69199000D01*
G75*
G02*
X136312400Y-68999000I0J200000D01*
G01*
X136312400Y-67399000D01*
G75*
G02*
X136512400Y-67199000I200000J0D01*
G01*
X138112400Y-67199000D01*
G75*
G02*
X138312400Y-67399000I0J-200000D01*
G01*
X138312400Y-68999000D01*
G75*
G02*
X138112400Y-69199000I-200000J0D01*
G01*
G37*
D21*
X155092400Y-60579000D03*
X139852400Y-68199000D03*
X152552400Y-60579000D03*
X142392400Y-68199000D03*
X150012400Y-60579000D03*
X144932400Y-68199000D03*
X147472400Y-60579000D03*
X147472400Y-68199000D03*
X144932400Y-60579000D03*
X150012400Y-68199000D03*
X142392400Y-60579000D03*
X152552400Y-68199000D03*
X139852400Y-60579000D03*
X155092400Y-68199000D03*
X137312400Y-60579000D03*
D22*
X132254000Y-78376000D03*
X132254000Y-96376000D03*
X187786000Y-78376000D03*
X187786000Y-96376000D03*
D20*
X161493200Y-73406000D03*
X166319200Y-73406000D03*
X156667200Y-73406000D03*
G36*
G01*
X194835600Y-122058000D02*
X194835600Y-120258000D01*
G75*
G02*
X195035600Y-120058000I200000J0D01*
G01*
X196835600Y-120058000D01*
G75*
G02*
X197035600Y-120258000I0J-200000D01*
G01*
X197035600Y-122058000D01*
G75*
G02*
X196835600Y-122258000I-200000J0D01*
G01*
X195035600Y-122258000D01*
G75*
G02*
X194835600Y-122058000I0J200000D01*
G01*
G37*
D23*
X198475600Y-121158000D03*
D17*
X197205600Y-124968000D03*
X165875971Y-145140247D03*
D23*
X163032942Y-142303667D03*
G36*
G01*
X162214223Y-145962806D02*
X160603341Y-145159650D01*
G75*
G02*
X160513594Y-144891423I89240J178987D01*
G01*
X161316750Y-143280541D01*
G75*
G02*
X161584977Y-143190794I178987J-89240D01*
G01*
X163195859Y-143993950D01*
G75*
G02*
X163285606Y-144262177I-89240J-178987D01*
G01*
X162482450Y-145873059D01*
G75*
G02*
X162214223Y-145962806I-178987J89240D01*
G01*
G37*
D17*
X122948700Y-124841000D03*
D23*
X124218700Y-121031000D03*
G36*
G01*
X120578700Y-121931000D02*
X120578700Y-120131000D01*
G75*
G02*
X120778700Y-119931000I200000J0D01*
G01*
X122578700Y-119931000D01*
G75*
G02*
X122778700Y-120131000I0J-200000D01*
G01*
X122778700Y-121931000D01*
G75*
G02*
X122578700Y-122131000I-200000J0D01*
G01*
X120778700Y-122131000D01*
G75*
G02*
X120578700Y-121931000I0J200000D01*
G01*
G37*
G36*
G01*
X155786999Y-141720817D02*
X157397881Y-140917661D01*
G75*
G02*
X157666108Y-141007408I89240J-178987D01*
G01*
X158469264Y-142618290D01*
G75*
G02*
X158379517Y-142886517I-178987J-89240D01*
G01*
X156768635Y-143689673D01*
G75*
G02*
X156500408Y-143599926I-89240J178987D01*
G01*
X155697252Y-141989044D01*
G75*
G02*
X155786999Y-141720817I178987J89240D01*
G01*
G37*
X158216600Y-144576800D03*
D17*
X154240229Y-145140247D03*
G36*
G01*
X189349200Y-127950800D02*
X189349200Y-126150800D01*
G75*
G02*
X189549200Y-125950800I200000J0D01*
G01*
X191349200Y-125950800D01*
G75*
G02*
X191549200Y-126150800I0J-200000D01*
G01*
X191549200Y-127950800D01*
G75*
G02*
X191349200Y-128150800I-200000J0D01*
G01*
X189549200Y-128150800D01*
G75*
G02*
X189349200Y-127950800I0J200000D01*
G01*
G37*
D23*
X192989200Y-127050800D03*
D17*
X191719200Y-130860800D03*
X173902371Y-142651047D03*
D23*
X171059342Y-139814467D03*
G36*
G01*
X170240623Y-143473606D02*
X168629741Y-142670450D01*
G75*
G02*
X168539994Y-142402223I89240J178987D01*
G01*
X169343150Y-140791341D01*
G75*
G02*
X169611377Y-140701594I178987J-89240D01*
G01*
X171222259Y-141504750D01*
G75*
G02*
X171312006Y-141772977I-89240J-178987D01*
G01*
X170508850Y-143383859D01*
G75*
G02*
X170240623Y-143473606I-178987J89240D01*
G01*
G37*
G36*
G01*
X126458800Y-127823800D02*
X126458800Y-126023800D01*
G75*
G02*
X126658800Y-125823800I200000J0D01*
G01*
X128458800Y-125823800D01*
G75*
G02*
X128658800Y-126023800I0J-200000D01*
G01*
X128658800Y-127823800D01*
G75*
G02*
X128458800Y-128023800I-200000J0D01*
G01*
X126658800Y-128023800D01*
G75*
G02*
X126458800Y-127823800I0J200000D01*
G01*
G37*
X130098800Y-126923800D03*
D17*
X128828800Y-130733800D03*
X146442429Y-142574847D03*
D23*
X150418800Y-142011400D03*
G36*
G01*
X147989199Y-139155417D02*
X149600081Y-138352261D01*
G75*
G02*
X149868308Y-138442008I89240J-178987D01*
G01*
X150671464Y-140052890D01*
G75*
G02*
X150581717Y-140321117I-178987J-89240D01*
G01*
X148970835Y-141124273D01*
G75*
G02*
X148702608Y-141034526I-89240J178987D01*
G01*
X147899452Y-139423644D01*
G75*
G02*
X147989199Y-139155417I178987J89240D01*
G01*
G37*
G36*
G01*
X190182667Y-65545400D02*
X191731733Y-65545400D01*
G75*
G02*
X192057200Y-65870867I0J-325467D01*
G01*
X192057200Y-66944933D01*
G75*
G02*
X191731733Y-67270400I-325467J0D01*
G01*
X190182667Y-67270400D01*
G75*
G02*
X189857200Y-66944933I0J325467D01*
G01*
X189857200Y-65870867D01*
G75*
G02*
X190182667Y-65545400I325467J0D01*
G01*
G37*
G36*
G01*
X190182667Y-68670400D02*
X191731733Y-68670400D01*
G75*
G02*
X192057200Y-68995867I0J-325467D01*
G01*
X192057200Y-70069933D01*
G75*
G02*
X191731733Y-70395400I-325467J0D01*
G01*
X190182667Y-70395400D01*
G75*
G02*
X189857200Y-70069933I0J325467D01*
G01*
X189857200Y-68995867D01*
G75*
G02*
X190182667Y-68670400I325467J0D01*
G01*
G37*
G36*
G01*
X134887400Y-108648333D02*
X134887400Y-107099267D01*
G75*
G02*
X135212867Y-106773800I325467J0D01*
G01*
X136286933Y-106773800D01*
G75*
G02*
X136612400Y-107099267I0J-325467D01*
G01*
X136612400Y-108648333D01*
G75*
G02*
X136286933Y-108973800I-325467J0D01*
G01*
X135212867Y-108973800D01*
G75*
G02*
X134887400Y-108648333I0J325467D01*
G01*
G37*
G36*
G01*
X138012400Y-108648333D02*
X138012400Y-107099267D01*
G75*
G02*
X138337867Y-106773800I325467J0D01*
G01*
X139411933Y-106773800D01*
G75*
G02*
X139737400Y-107099267I0J-325467D01*
G01*
X139737400Y-108648333D01*
G75*
G02*
X139411933Y-108973800I-325467J0D01*
G01*
X138337867Y-108973800D01*
G75*
G02*
X138012400Y-108648333I0J325467D01*
G01*
G37*
G36*
G01*
X138012400Y-106286133D02*
X138012400Y-104737067D01*
G75*
G02*
X138337867Y-104411600I325467J0D01*
G01*
X139411933Y-104411600D01*
G75*
G02*
X139737400Y-104737067I0J-325467D01*
G01*
X139737400Y-106286133D01*
G75*
G02*
X139411933Y-106611600I-325467J0D01*
G01*
X138337867Y-106611600D01*
G75*
G02*
X138012400Y-106286133I0J325467D01*
G01*
G37*
G36*
G01*
X134887400Y-106286133D02*
X134887400Y-104737067D01*
G75*
G02*
X135212867Y-104411600I325467J0D01*
G01*
X136286933Y-104411600D01*
G75*
G02*
X136612400Y-104737067I0J-325467D01*
G01*
X136612400Y-106286133D01*
G75*
G02*
X136286933Y-106611600I-325467J0D01*
G01*
X135212867Y-106611600D01*
G75*
G02*
X134887400Y-106286133I0J325467D01*
G01*
G37*
G36*
G01*
X137204600Y-99295200D02*
X137704600Y-99295200D01*
G75*
G02*
X137954600Y-99545200I0J-250000D01*
G01*
X137954600Y-100770200D01*
G75*
G02*
X137704600Y-101020200I-250000J0D01*
G01*
X137204600Y-101020200D01*
G75*
G02*
X136954600Y-100770200I0J250000D01*
G01*
X136954600Y-99545200D01*
G75*
G02*
X137204600Y-99295200I250000J0D01*
G01*
G37*
G36*
G01*
X138154600Y-99295200D02*
X138654600Y-99295200D01*
G75*
G02*
X138904600Y-99545200I0J-250000D01*
G01*
X138904600Y-100770200D01*
G75*
G02*
X138654600Y-101020200I-250000J0D01*
G01*
X138154600Y-101020200D01*
G75*
G02*
X137904600Y-100770200I0J250000D01*
G01*
X137904600Y-99545200D01*
G75*
G02*
X138154600Y-99295200I250000J0D01*
G01*
G37*
G36*
G01*
X139104600Y-99295200D02*
X139604600Y-99295200D01*
G75*
G02*
X139854600Y-99545200I0J-250000D01*
G01*
X139854600Y-100770200D01*
G75*
G02*
X139604600Y-101020200I-250000J0D01*
G01*
X139104600Y-101020200D01*
G75*
G02*
X138854600Y-100770200I0J250000D01*
G01*
X138854600Y-99545200D01*
G75*
G02*
X139104600Y-99295200I250000J0D01*
G01*
G37*
G36*
G01*
X139104600Y-101570200D02*
X139604600Y-101570200D01*
G75*
G02*
X139854600Y-101820200I0J-250000D01*
G01*
X139854600Y-103045200D01*
G75*
G02*
X139604600Y-103295200I-250000J0D01*
G01*
X139104600Y-103295200D01*
G75*
G02*
X138854600Y-103045200I0J250000D01*
G01*
X138854600Y-101820200D01*
G75*
G02*
X139104600Y-101570200I250000J0D01*
G01*
G37*
G36*
G01*
X137204600Y-101570200D02*
X137704600Y-101570200D01*
G75*
G02*
X137954600Y-101820200I0J-250000D01*
G01*
X137954600Y-103045200D01*
G75*
G02*
X137704600Y-103295200I-250000J0D01*
G01*
X137204600Y-103295200D01*
G75*
G02*
X136954600Y-103045200I0J250000D01*
G01*
X136954600Y-101820200D01*
G75*
G02*
X137204600Y-101570200I250000J0D01*
G01*
G37*
G36*
G01*
X166890600Y-60537600D02*
X165290600Y-60537600D01*
G75*
G02*
X165090600Y-60337600I0J200000D01*
G01*
X165090600Y-58737600D01*
G75*
G02*
X165290600Y-58537600I200000J0D01*
G01*
X166890600Y-58537600D01*
G75*
G02*
X167090600Y-58737600I0J-200000D01*
G01*
X167090600Y-60337600D01*
G75*
G02*
X166890600Y-60537600I-200000J0D01*
G01*
G37*
D18*
X166090600Y-57037600D03*
G36*
G01*
X134632867Y-99315100D02*
X136181933Y-99315100D01*
G75*
G02*
X136507400Y-99640567I0J-325467D01*
G01*
X136507400Y-100714633D01*
G75*
G02*
X136181933Y-101040100I-325467J0D01*
G01*
X134632867Y-101040100D01*
G75*
G02*
X134307400Y-100714633I0J325467D01*
G01*
X134307400Y-99640567D01*
G75*
G02*
X134632867Y-99315100I325467J0D01*
G01*
G37*
G36*
G01*
X134632867Y-102440100D02*
X136181933Y-102440100D01*
G75*
G02*
X136507400Y-102765567I0J-325467D01*
G01*
X136507400Y-103839633D01*
G75*
G02*
X136181933Y-104165100I-325467J0D01*
G01*
X134632867Y-104165100D01*
G75*
G02*
X134307400Y-103839633I0J325467D01*
G01*
X134307400Y-102765567D01*
G75*
G02*
X134632867Y-102440100I325467J0D01*
G01*
G37*
G36*
G01*
X137987000Y-111061333D02*
X137987000Y-109512267D01*
G75*
G02*
X138312467Y-109186800I325467J0D01*
G01*
X139386533Y-109186800D01*
G75*
G02*
X139712000Y-109512267I0J-325467D01*
G01*
X139712000Y-111061333D01*
G75*
G02*
X139386533Y-111386800I-325467J0D01*
G01*
X138312467Y-111386800D01*
G75*
G02*
X137987000Y-111061333I0J325467D01*
G01*
G37*
G36*
G01*
X134862000Y-111061333D02*
X134862000Y-109512267D01*
G75*
G02*
X135187467Y-109186800I325467J0D01*
G01*
X136261533Y-109186800D01*
G75*
G02*
X136587000Y-109512267I0J-325467D01*
G01*
X136587000Y-111061333D01*
G75*
G02*
X136261533Y-111386800I-325467J0D01*
G01*
X135187467Y-111386800D01*
G75*
G02*
X134862000Y-111061333I0J325467D01*
G01*
G37*
G36*
G01*
X178296000Y-135597733D02*
X178296000Y-134048667D01*
G75*
G02*
X178621467Y-133723200I325467J0D01*
G01*
X179695533Y-133723200D01*
G75*
G02*
X180021000Y-134048667I0J-325467D01*
G01*
X180021000Y-135597733D01*
G75*
G02*
X179695533Y-135923200I-325467J0D01*
G01*
X178621467Y-135923200D01*
G75*
G02*
X178296000Y-135597733I0J325467D01*
G01*
G37*
G36*
G01*
X181421000Y-135597733D02*
X181421000Y-134048667D01*
G75*
G02*
X181746467Y-133723200I325467J0D01*
G01*
X182820533Y-133723200D01*
G75*
G02*
X183146000Y-134048667I0J-325467D01*
G01*
X183146000Y-135597733D01*
G75*
G02*
X182820533Y-135923200I-325467J0D01*
G01*
X181746467Y-135923200D01*
G75*
G02*
X181421000Y-135597733I0J325467D01*
G01*
G37*
D15*
X151917400Y-77470000D03*
X149377400Y-77470000D03*
X146837400Y-77470000D03*
X144297400Y-77470000D03*
X141757400Y-77470000D03*
G36*
G01*
X140067400Y-78520000D02*
X138367400Y-78520000D01*
G75*
G02*
X138167400Y-78320000I0J200000D01*
G01*
X138167400Y-76620000D01*
G75*
G02*
X138367400Y-76420000I200000J0D01*
G01*
X140067400Y-76420000D01*
G75*
G02*
X140267400Y-76620000I0J-200000D01*
G01*
X140267400Y-78320000D01*
G75*
G02*
X140067400Y-78520000I-200000J0D01*
G01*
G37*
G36*
G01*
X168921800Y-78621600D02*
X167221800Y-78621600D01*
G75*
G02*
X167021800Y-78421600I0J200000D01*
G01*
X167021800Y-76721600D01*
G75*
G02*
X167221800Y-76521600I200000J0D01*
G01*
X168921800Y-76521600D01*
G75*
G02*
X169121800Y-76721600I0J-200000D01*
G01*
X169121800Y-78421600D01*
G75*
G02*
X168921800Y-78621600I-200000J0D01*
G01*
G37*
X170611800Y-77571600D03*
X173151800Y-77571600D03*
X175691800Y-77571600D03*
X178231800Y-77571600D03*
X180771800Y-77571600D03*
G36*
G01*
X180098400Y-123991321D02*
X180098400Y-125487479D01*
G75*
G02*
X179771479Y-125814400I-326921J0D01*
G01*
X178725321Y-125814400D01*
G75*
G02*
X178398400Y-125487479I0J326921D01*
G01*
X178398400Y-123991321D01*
G75*
G02*
X178725321Y-123664400I326921J0D01*
G01*
X179771479Y-123664400D01*
G75*
G02*
X180098400Y-123991321I0J-326921D01*
G01*
G37*
G36*
G01*
X176998400Y-123991321D02*
X176998400Y-125487479D01*
G75*
G02*
X176671479Y-125814400I-326921J0D01*
G01*
X175625321Y-125814400D01*
G75*
G02*
X175298400Y-125487479I0J326921D01*
G01*
X175298400Y-123991321D01*
G75*
G02*
X175625321Y-123664400I326921J0D01*
G01*
X176671479Y-123664400D01*
G75*
G02*
X176998400Y-123991321I0J-326921D01*
G01*
G37*
G36*
G01*
X151146800Y-58431800D02*
X151146800Y-56731800D01*
G75*
G02*
X151346800Y-56531800I200000J0D01*
G01*
X153046800Y-56531800D01*
G75*
G02*
X153246800Y-56731800I0J-200000D01*
G01*
X153246800Y-58431800D01*
G75*
G02*
X153046800Y-58631800I-200000J0D01*
G01*
X151346800Y-58631800D01*
G75*
G02*
X151146800Y-58431800I0J200000D01*
G01*
G37*
G36*
G01*
X121830200Y-105952000D02*
X120130200Y-105952000D01*
G75*
G02*
X119930200Y-105752000I0J200000D01*
G01*
X119930200Y-104052000D01*
G75*
G02*
X120130200Y-103852000I200000J0D01*
G01*
X121830200Y-103852000D01*
G75*
G02*
X122030200Y-104052000I0J-200000D01*
G01*
X122030200Y-105752000D01*
G75*
G02*
X121830200Y-105952000I-200000J0D01*
G01*
G37*
G36*
G01*
X194170133Y-70395400D02*
X192621067Y-70395400D01*
G75*
G02*
X192295600Y-70069933I0J325467D01*
G01*
X192295600Y-68995867D01*
G75*
G02*
X192621067Y-68670400I325467J0D01*
G01*
X194170133Y-68670400D01*
G75*
G02*
X194495600Y-68995867I0J-325467D01*
G01*
X194495600Y-70069933D01*
G75*
G02*
X194170133Y-70395400I-325467J0D01*
G01*
G37*
G36*
G01*
X194170133Y-67270400D02*
X192621067Y-67270400D01*
G75*
G02*
X192295600Y-66944933I0J325467D01*
G01*
X192295600Y-65870867D01*
G75*
G02*
X192621067Y-65545400I325467J0D01*
G01*
X194170133Y-65545400D01*
G75*
G02*
X194495600Y-65870867I0J-325467D01*
G01*
X194495600Y-66944933D01*
G75*
G02*
X194170133Y-67270400I-325467J0D01*
G01*
G37*
G36*
G01*
X139859575Y-133769400D02*
X141369225Y-133769400D01*
G75*
G02*
X141689400Y-134089575I0J-320175D01*
G01*
X141689400Y-135274225D01*
G75*
G02*
X141369225Y-135594400I-320175J0D01*
G01*
X139859575Y-135594400D01*
G75*
G02*
X139539400Y-135274225I0J320175D01*
G01*
X139539400Y-134089575D01*
G75*
G02*
X139859575Y-133769400I320175J0D01*
G01*
G37*
G36*
G01*
X139859575Y-136744400D02*
X141369225Y-136744400D01*
G75*
G02*
X141689400Y-137064575I0J-320175D01*
G01*
X141689400Y-138249225D01*
G75*
G02*
X141369225Y-138569400I-320175J0D01*
G01*
X139859575Y-138569400D01*
G75*
G02*
X139539400Y-138249225I0J320175D01*
G01*
X139539400Y-137064575D01*
G75*
G02*
X139859575Y-136744400I320175J0D01*
G01*
G37*
G36*
G01*
X142570500Y-138772733D02*
X142570500Y-137223667D01*
G75*
G02*
X142895967Y-136898200I325467J0D01*
G01*
X143970033Y-136898200D01*
G75*
G02*
X144295500Y-137223667I0J-325467D01*
G01*
X144295500Y-138772733D01*
G75*
G02*
X143970033Y-139098200I-325467J0D01*
G01*
X142895967Y-139098200D01*
G75*
G02*
X142570500Y-138772733I0J325467D01*
G01*
G37*
G36*
G01*
X145695500Y-138772733D02*
X145695500Y-137223667D01*
G75*
G02*
X146020967Y-136898200I325467J0D01*
G01*
X147095033Y-136898200D01*
G75*
G02*
X147420500Y-137223667I0J-325467D01*
G01*
X147420500Y-138772733D01*
G75*
G02*
X147095033Y-139098200I-325467J0D01*
G01*
X146020967Y-139098200D01*
G75*
G02*
X145695500Y-138772733I0J325467D01*
G01*
G37*
G36*
G01*
X187641000Y-134531267D02*
X187641000Y-136080333D01*
G75*
G02*
X187315533Y-136405800I-325467J0D01*
G01*
X186241467Y-136405800D01*
G75*
G02*
X185916000Y-136080333I0J325467D01*
G01*
X185916000Y-134531267D01*
G75*
G02*
X186241467Y-134205800I325467J0D01*
G01*
X187315533Y-134205800D01*
G75*
G02*
X187641000Y-134531267I0J-325467D01*
G01*
G37*
G36*
G01*
X190766000Y-134531267D02*
X190766000Y-136080333D01*
G75*
G02*
X190440533Y-136405800I-325467J0D01*
G01*
X189366467Y-136405800D01*
G75*
G02*
X189041000Y-136080333I0J325467D01*
G01*
X189041000Y-134531267D01*
G75*
G02*
X189366467Y-134205800I325467J0D01*
G01*
X190440533Y-134205800D01*
G75*
G02*
X190766000Y-134531267I0J-325467D01*
G01*
G37*
G36*
G01*
X133083133Y-136435400D02*
X131534067Y-136435400D01*
G75*
G02*
X131208600Y-136109933I0J325467D01*
G01*
X131208600Y-135035867D01*
G75*
G02*
X131534067Y-134710400I325467J0D01*
G01*
X133083133Y-134710400D01*
G75*
G02*
X133408600Y-135035867I0J-325467D01*
G01*
X133408600Y-136109933D01*
G75*
G02*
X133083133Y-136435400I-325467J0D01*
G01*
G37*
G36*
G01*
X133083133Y-133310400D02*
X131534067Y-133310400D01*
G75*
G02*
X131208600Y-132984933I0J325467D01*
G01*
X131208600Y-131910867D01*
G75*
G02*
X131534067Y-131585400I325467J0D01*
G01*
X133083133Y-131585400D01*
G75*
G02*
X133408600Y-131910867I0J-325467D01*
G01*
X133408600Y-132984933D01*
G75*
G02*
X133083133Y-133310400I-325467J0D01*
G01*
G37*
G36*
G01*
X174612133Y-137018800D02*
X173063067Y-137018800D01*
G75*
G02*
X172737600Y-136693333I0J325467D01*
G01*
X172737600Y-135619267D01*
G75*
G02*
X173063067Y-135293800I325467J0D01*
G01*
X174612133Y-135293800D01*
G75*
G02*
X174937600Y-135619267I0J-325467D01*
G01*
X174937600Y-136693333D01*
G75*
G02*
X174612133Y-137018800I-325467J0D01*
G01*
G37*
G36*
G01*
X174612133Y-140143800D02*
X173063067Y-140143800D01*
G75*
G02*
X172737600Y-139818333I0J325467D01*
G01*
X172737600Y-138744267D01*
G75*
G02*
X173063067Y-138418800I325467J0D01*
G01*
X174612133Y-138418800D01*
G75*
G02*
X174937600Y-138744267I0J-325467D01*
G01*
X174937600Y-139818333D01*
G75*
G02*
X174612133Y-140143800I-325467J0D01*
G01*
G37*
D24*
X176047400Y-58343800D03*
X176047400Y-60375800D03*
X178079400Y-60375800D03*
X178079400Y-58343800D03*
X174015400Y-58343800D03*
X171983400Y-58343800D03*
X174015400Y-60375800D03*
X171983400Y-60375800D03*
X171983400Y-62407800D03*
X174015400Y-62407800D03*
X176047400Y-62407800D03*
X178079400Y-62407800D03*
X171983400Y-64439800D03*
X174015400Y-64439800D03*
X176047400Y-64439800D03*
X178079400Y-64439800D03*
X178079400Y-66471800D03*
X176047400Y-66471800D03*
X174015400Y-66471800D03*
X171983400Y-66471800D03*
D25*
X139522200Y-116840000D03*
X139522200Y-119380000D03*
X139522200Y-121920000D03*
X139522200Y-124460000D03*
X183972200Y-128270000D03*
G36*
G01*
X183122200Y-111980000D02*
X184822200Y-111980000D01*
G75*
G02*
X185022200Y-112180000I0J-200000D01*
G01*
X185022200Y-113880000D01*
G75*
G02*
X184822200Y-114080000I-200000J0D01*
G01*
X183122200Y-114080000D01*
G75*
G02*
X182922200Y-113880000I0J200000D01*
G01*
X182922200Y-112180000D01*
G75*
G02*
X183122200Y-111980000I200000J0D01*
G01*
G37*
X181432200Y-128270000D03*
X181432200Y-113030000D03*
X178892200Y-128270000D03*
X178892200Y-113030000D03*
X176352200Y-128270000D03*
X176352200Y-113030000D03*
X173812200Y-128270000D03*
X173812200Y-113030000D03*
X171272200Y-128270000D03*
X171272200Y-113030000D03*
X168732200Y-128270000D03*
X168732200Y-113030000D03*
X166192200Y-128270000D03*
X166192200Y-113030000D03*
X163652200Y-128270000D03*
X163652200Y-113030000D03*
X161112200Y-128270000D03*
X161112200Y-113030000D03*
X158572200Y-128270000D03*
X158572200Y-113030000D03*
X156032200Y-128270000D03*
X156032200Y-113030000D03*
X153492200Y-128270000D03*
X153492200Y-113030000D03*
X150952200Y-128270000D03*
X150952200Y-113030000D03*
X148412200Y-128270000D03*
X148412200Y-113030000D03*
X145872200Y-128270000D03*
X145872200Y-113030000D03*
X143332200Y-128270000D03*
X143332200Y-113030000D03*
X140792200Y-128270000D03*
X140792200Y-113030000D03*
X138252200Y-128270000D03*
X138252200Y-113030000D03*
X135712200Y-128270000D03*
X135712200Y-113030000D03*
G36*
G01*
X143399800Y-57111000D02*
X143399800Y-55411000D01*
G75*
G02*
X143599800Y-55211000I200000J0D01*
G01*
X145299800Y-55211000D01*
G75*
G02*
X145499800Y-55411000I0J-200000D01*
G01*
X145499800Y-57111000D01*
G75*
G02*
X145299800Y-57311000I-200000J0D01*
G01*
X143599800Y-57311000D01*
G75*
G02*
X143399800Y-57111000I0J200000D01*
G01*
G37*
G36*
G01*
X139742200Y-57085600D02*
X139742200Y-55385600D01*
G75*
G02*
X139942200Y-55185600I200000J0D01*
G01*
X141642200Y-55185600D01*
G75*
G02*
X141842200Y-55385600I0J-200000D01*
G01*
X141842200Y-57085600D01*
G75*
G02*
X141642200Y-57285600I-200000J0D01*
G01*
X139942200Y-57285600D01*
G75*
G02*
X139742200Y-57085600I0J200000D01*
G01*
G37*
G36*
G01*
X133988800Y-63854600D02*
X133188800Y-63854600D01*
G75*
G02*
X132988800Y-63654600I0J200000D01*
G01*
X132988800Y-62754600D01*
G75*
G02*
X133188800Y-62554600I200000J0D01*
G01*
X133988800Y-62554600D01*
G75*
G02*
X134188800Y-62754600I0J-200000D01*
G01*
X134188800Y-63654600D01*
G75*
G02*
X133988800Y-63854600I-200000J0D01*
G01*
G37*
G36*
G01*
X132088800Y-63854600D02*
X131288800Y-63854600D01*
G75*
G02*
X131088800Y-63654600I0J200000D01*
G01*
X131088800Y-62754600D01*
G75*
G02*
X131288800Y-62554600I200000J0D01*
G01*
X132088800Y-62554600D01*
G75*
G02*
X132288800Y-62754600I0J-200000D01*
G01*
X132288800Y-63654600D01*
G75*
G02*
X132088800Y-63854600I-200000J0D01*
G01*
G37*
G36*
G01*
X133038800Y-61854600D02*
X132238800Y-61854600D01*
G75*
G02*
X132038800Y-61654600I0J200000D01*
G01*
X132038800Y-60754600D01*
G75*
G02*
X132238800Y-60554600I200000J0D01*
G01*
X133038800Y-60554600D01*
G75*
G02*
X133238800Y-60754600I0J-200000D01*
G01*
X133238800Y-61654600D01*
G75*
G02*
X133038800Y-61854600I-200000J0D01*
G01*
G37*
G36*
G01*
X163728570Y-94591100D02*
X165277630Y-94591100D01*
G75*
G02*
X165603100Y-94916570I0J-325470D01*
G01*
X165603100Y-95990630D01*
G75*
G02*
X165277630Y-96316100I-325470J0D01*
G01*
X163728570Y-96316100D01*
G75*
G02*
X163403100Y-95990630I0J325470D01*
G01*
X163403100Y-94916570D01*
G75*
G02*
X163728570Y-94591100I325470J0D01*
G01*
G37*
G36*
G01*
X163728570Y-91466100D02*
X165277630Y-91466100D01*
G75*
G02*
X165603100Y-91791570I0J-325470D01*
G01*
X165603100Y-92865630D01*
G75*
G02*
X165277630Y-93191100I-325470J0D01*
G01*
X163728570Y-93191100D01*
G75*
G02*
X163403100Y-92865630I0J325470D01*
G01*
X163403100Y-91791570D01*
G75*
G02*
X163728570Y-91466100I325470J0D01*
G01*
G37*
G36*
G01*
X162470930Y-96481200D02*
X160921870Y-96481200D01*
G75*
G02*
X160596400Y-96155730I0J325470D01*
G01*
X160596400Y-95081670D01*
G75*
G02*
X160921870Y-94756200I325470J0D01*
G01*
X162470930Y-94756200D01*
G75*
G02*
X162796400Y-95081670I0J-325470D01*
G01*
X162796400Y-96155730D01*
G75*
G02*
X162470930Y-96481200I-325470J0D01*
G01*
G37*
G36*
G01*
X162470930Y-93356200D02*
X160921870Y-93356200D01*
G75*
G02*
X160596400Y-93030730I0J325470D01*
G01*
X160596400Y-91956670D01*
G75*
G02*
X160921870Y-91631200I325470J0D01*
G01*
X162470930Y-91631200D01*
G75*
G02*
X162796400Y-91956670I0J-325470D01*
G01*
X162796400Y-93030730D01*
G75*
G02*
X162470930Y-93356200I-325470J0D01*
G01*
G37*
G36*
G01*
X168645509Y-89381258D02*
X167550158Y-90476609D01*
G75*
G02*
X167089874Y-90476609I-230142J230142D01*
G01*
X166330399Y-89717134D01*
G75*
G02*
X166330399Y-89256850I230142J230142D01*
G01*
X167425750Y-88161499D01*
G75*
G02*
X167886034Y-88161499I230142J-230142D01*
G01*
X168645509Y-88920974D01*
G75*
G02*
X168645509Y-89381258I-230142J-230142D01*
G01*
G37*
G36*
G01*
X166435801Y-87171550D02*
X165340450Y-88266901D01*
G75*
G02*
X164880166Y-88266901I-230142J230142D01*
G01*
X164120691Y-87507426D01*
G75*
G02*
X164120691Y-87047142I230142J230142D01*
G01*
X165216042Y-85951791D01*
G75*
G02*
X165676326Y-85951791I230142J-230142D01*
G01*
X166435801Y-86711266D01*
G75*
G02*
X166435801Y-87171550I-230142J-230142D01*
G01*
G37*
G36*
G01*
X162290000Y-84970400D02*
X162290000Y-85630800D01*
G75*
G02*
X162090000Y-85830800I-200000J0D01*
G01*
X160820000Y-85830800D01*
G75*
G02*
X160620000Y-85630800I0J200000D01*
G01*
X160620000Y-84970400D01*
G75*
G02*
X160820000Y-84770400I200000J0D01*
G01*
X162090000Y-84770400D01*
G75*
G02*
X162290000Y-84970400I0J-200000D01*
G01*
G37*
G36*
G01*
X162290000Y-86385400D02*
X162290000Y-87045800D01*
G75*
G02*
X162090000Y-87245800I-200000J0D01*
G01*
X160820000Y-87245800D01*
G75*
G02*
X160620000Y-87045800I0J200000D01*
G01*
X160620000Y-86385400D01*
G75*
G02*
X160820000Y-86185400I200000J0D01*
G01*
X162090000Y-86185400D01*
G75*
G02*
X162290000Y-86385400I0J-200000D01*
G01*
G37*
G36*
G01*
X162290000Y-87655400D02*
X162290000Y-88315800D01*
G75*
G02*
X162090000Y-88515800I-200000J0D01*
G01*
X160820000Y-88515800D01*
G75*
G02*
X160620000Y-88315800I0J200000D01*
G01*
X160620000Y-87655400D01*
G75*
G02*
X160820000Y-87455400I200000J0D01*
G01*
X162090000Y-87455400D01*
G75*
G02*
X162290000Y-87655400I0J-200000D01*
G01*
G37*
G36*
G01*
X162290000Y-89070400D02*
X162290000Y-89730800D01*
G75*
G02*
X162090000Y-89930800I-200000J0D01*
G01*
X160820000Y-89930800D01*
G75*
G02*
X160620000Y-89730800I0J200000D01*
G01*
X160620000Y-89070400D01*
G75*
G02*
X160820000Y-88870400I200000J0D01*
G01*
X162090000Y-88870400D01*
G75*
G02*
X162290000Y-89070400I0J-200000D01*
G01*
G37*
G36*
G01*
X160350200Y-90570600D02*
X159689800Y-90570600D01*
G75*
G02*
X159489800Y-90370600I0J200000D01*
G01*
X159489800Y-89100600D01*
G75*
G02*
X159689800Y-88900600I200000J0D01*
G01*
X160350200Y-88900600D01*
G75*
G02*
X160550200Y-89100600I0J-200000D01*
G01*
X160550200Y-90370600D01*
G75*
G02*
X160350200Y-90570600I-200000J0D01*
G01*
G37*
G36*
G01*
X159420000Y-89070400D02*
X159420000Y-89730800D01*
G75*
G02*
X159220000Y-89930800I-200000J0D01*
G01*
X157950000Y-89930800D01*
G75*
G02*
X157750000Y-89730800I0J200000D01*
G01*
X157750000Y-89070400D01*
G75*
G02*
X157950000Y-88870400I200000J0D01*
G01*
X159220000Y-88870400D01*
G75*
G02*
X159420000Y-89070400I0J-200000D01*
G01*
G37*
G36*
G01*
X159420000Y-87655400D02*
X159420000Y-88315800D01*
G75*
G02*
X159220000Y-88515800I-200000J0D01*
G01*
X157950000Y-88515800D01*
G75*
G02*
X157750000Y-88315800I0J200000D01*
G01*
X157750000Y-87655400D01*
G75*
G02*
X157950000Y-87455400I200000J0D01*
G01*
X159220000Y-87455400D01*
G75*
G02*
X159420000Y-87655400I0J-200000D01*
G01*
G37*
G36*
G01*
X159420000Y-86385400D02*
X159420000Y-87045800D01*
G75*
G02*
X159220000Y-87245800I-200000J0D01*
G01*
X157950000Y-87245800D01*
G75*
G02*
X157750000Y-87045800I0J200000D01*
G01*
X157750000Y-86385400D01*
G75*
G02*
X157950000Y-86185400I200000J0D01*
G01*
X159220000Y-86185400D01*
G75*
G02*
X159420000Y-86385400I0J-200000D01*
G01*
G37*
G36*
G01*
X159420000Y-84970400D02*
X159420000Y-85630800D01*
G75*
G02*
X159220000Y-85830800I-200000J0D01*
G01*
X157950000Y-85830800D01*
G75*
G02*
X157750000Y-85630800I0J200000D01*
G01*
X157750000Y-84970400D01*
G75*
G02*
X157950000Y-84770400I200000J0D01*
G01*
X159220000Y-84770400D01*
G75*
G02*
X159420000Y-84970400I0J-200000D01*
G01*
G37*
G36*
G01*
X159689800Y-84130600D02*
X160350200Y-84130600D01*
G75*
G02*
X160550200Y-84330600I0J-200000D01*
G01*
X160550200Y-85600600D01*
G75*
G02*
X160350200Y-85800600I-200000J0D01*
G01*
X159689800Y-85800600D01*
G75*
G02*
X159489800Y-85600600I0J200000D01*
G01*
X159489800Y-84330600D01*
G75*
G02*
X159689800Y-84130600I200000J0D01*
G01*
G37*
G36*
G01*
X159371077Y-96862600D02*
X157874923Y-96862600D01*
G75*
G02*
X157548000Y-96535677I0J326923D01*
G01*
X157548000Y-95489523D01*
G75*
G02*
X157874923Y-95162600I326923J0D01*
G01*
X159371077Y-95162600D01*
G75*
G02*
X159698000Y-95489523I0J-326923D01*
G01*
X159698000Y-96535677D01*
G75*
G02*
X159371077Y-96862600I-326923J0D01*
G01*
G37*
G36*
G01*
X159371077Y-93762600D02*
X157874923Y-93762600D01*
G75*
G02*
X157548000Y-93435677I0J326923D01*
G01*
X157548000Y-92389523D01*
G75*
G02*
X157874923Y-92062600I326923J0D01*
G01*
X159371077Y-92062600D01*
G75*
G02*
X159698000Y-92389523I0J-326923D01*
G01*
X159698000Y-93435677D01*
G75*
G02*
X159371077Y-93762600I-326923J0D01*
G01*
G37*
G36*
G01*
X156401200Y-95228400D02*
X154901200Y-95228400D01*
G75*
G02*
X154701200Y-95028400I0J200000D01*
G01*
X154701200Y-94028400D01*
G75*
G02*
X154901200Y-93828400I200000J0D01*
G01*
X156401200Y-93828400D01*
G75*
G02*
X156601200Y-94028400I0J-200000D01*
G01*
X156601200Y-95028400D01*
G75*
G02*
X156401200Y-95228400I-200000J0D01*
G01*
G37*
G36*
G01*
X156401200Y-93928400D02*
X154901200Y-93928400D01*
G75*
G02*
X154701200Y-93728400I0J200000D01*
G01*
X154701200Y-92728400D01*
G75*
G02*
X154901200Y-92528400I200000J0D01*
G01*
X156401200Y-92528400D01*
G75*
G02*
X156601200Y-92728400I0J-200000D01*
G01*
X156601200Y-93728400D01*
G75*
G02*
X156401200Y-93928400I-200000J0D01*
G01*
G37*
G36*
G01*
X169641075Y-87808100D02*
X171150725Y-87808100D01*
G75*
G02*
X171470900Y-88128275I0J-320175D01*
G01*
X171470900Y-89312925D01*
G75*
G02*
X171150725Y-89633100I-320175J0D01*
G01*
X169641075Y-89633100D01*
G75*
G02*
X169320900Y-89312925I0J320175D01*
G01*
X169320900Y-88128275D01*
G75*
G02*
X169641075Y-87808100I320175J0D01*
G01*
G37*
G36*
G01*
X169641075Y-90783100D02*
X171150725Y-90783100D01*
G75*
G02*
X171470900Y-91103275I0J-320175D01*
G01*
X171470900Y-92287925D01*
G75*
G02*
X171150725Y-92608100I-320175J0D01*
G01*
X169641075Y-92608100D01*
G75*
G02*
X169320900Y-92287925I0J320175D01*
G01*
X169320900Y-91103275D01*
G75*
G02*
X169641075Y-90783100I320175J0D01*
G01*
G37*
G36*
G01*
X195774600Y-118731400D02*
X195774600Y-117031400D01*
G75*
G02*
X195974600Y-116831400I200000J0D01*
G01*
X197674600Y-116831400D01*
G75*
G02*
X197874600Y-117031400I0J-200000D01*
G01*
X197874600Y-118731400D01*
G75*
G02*
X197674600Y-118931400I-200000J0D01*
G01*
X195974600Y-118931400D01*
G75*
G02*
X195774600Y-118731400I0J200000D01*
G01*
G37*
G36*
G01*
X195774600Y-105879000D02*
X195774600Y-104179000D01*
G75*
G02*
X195974600Y-103979000I200000J0D01*
G01*
X197674600Y-103979000D01*
G75*
G02*
X197874600Y-104179000I0J-200000D01*
G01*
X197874600Y-105879000D01*
G75*
G02*
X197674600Y-106079000I-200000J0D01*
G01*
X195974600Y-106079000D01*
G75*
G02*
X195774600Y-105879000I0J200000D01*
G01*
G37*
G36*
G01*
X186402000Y-103542200D02*
X186402000Y-101842200D01*
G75*
G02*
X186602000Y-101642200I200000J0D01*
G01*
X188302000Y-101642200D01*
G75*
G02*
X188502000Y-101842200I0J-200000D01*
G01*
X188502000Y-103542200D01*
G75*
G02*
X188302000Y-103742200I-200000J0D01*
G01*
X186602000Y-103742200D01*
G75*
G02*
X186402000Y-103542200I0J200000D01*
G01*
G37*
G36*
G01*
X186338500Y-107441100D02*
X186338500Y-105741100D01*
G75*
G02*
X186538500Y-105541100I200000J0D01*
G01*
X188238500Y-105541100D01*
G75*
G02*
X188438500Y-105741100I0J-200000D01*
G01*
X188438500Y-107441100D01*
G75*
G02*
X188238500Y-107641100I-200000J0D01*
G01*
X186538500Y-107641100D01*
G75*
G02*
X186338500Y-107441100I0J200000D01*
G01*
G37*
G36*
G01*
X193064600Y-114439000D02*
X193064600Y-115939000D01*
G75*
G02*
X192864600Y-116139000I-200000J0D01*
G01*
X191864600Y-116139000D01*
G75*
G02*
X191664600Y-115939000I0J200000D01*
G01*
X191664600Y-114439000D01*
G75*
G02*
X191864600Y-114239000I200000J0D01*
G01*
X192864600Y-114239000D01*
G75*
G02*
X193064600Y-114439000I0J-200000D01*
G01*
G37*
G36*
G01*
X194364600Y-114439000D02*
X194364600Y-115939000D01*
G75*
G02*
X194164600Y-116139000I-200000J0D01*
G01*
X193164600Y-116139000D01*
G75*
G02*
X192964600Y-115939000I0J200000D01*
G01*
X192964600Y-114439000D01*
G75*
G02*
X193164600Y-114239000I200000J0D01*
G01*
X194164600Y-114239000D01*
G75*
G02*
X194364600Y-114439000I0J-200000D01*
G01*
G37*
G36*
G01*
X191842400Y-109830600D02*
X192642400Y-109830600D01*
G75*
G02*
X192842400Y-110030600I0J-200000D01*
G01*
X192842400Y-110930600D01*
G75*
G02*
X192642400Y-111130600I-200000J0D01*
G01*
X191842400Y-111130600D01*
G75*
G02*
X191642400Y-110930600I0J200000D01*
G01*
X191642400Y-110030600D01*
G75*
G02*
X191842400Y-109830600I200000J0D01*
G01*
G37*
G36*
G01*
X193742400Y-109830600D02*
X194542400Y-109830600D01*
G75*
G02*
X194742400Y-110030600I0J-200000D01*
G01*
X194742400Y-110930600D01*
G75*
G02*
X194542400Y-111130600I-200000J0D01*
G01*
X193742400Y-111130600D01*
G75*
G02*
X193542400Y-110930600I0J200000D01*
G01*
X193542400Y-110030600D01*
G75*
G02*
X193742400Y-109830600I200000J0D01*
G01*
G37*
G36*
G01*
X192792400Y-111830600D02*
X193592400Y-111830600D01*
G75*
G02*
X193792400Y-112030600I0J-200000D01*
G01*
X193792400Y-112930600D01*
G75*
G02*
X193592400Y-113130600I-200000J0D01*
G01*
X192792400Y-113130600D01*
G75*
G02*
X192592400Y-112930600I0J200000D01*
G01*
X192592400Y-112030600D01*
G75*
G02*
X192792400Y-111830600I200000J0D01*
G01*
G37*
G36*
G01*
X192241123Y-104127600D02*
X193737277Y-104127600D01*
G75*
G02*
X194064200Y-104454523I0J-326923D01*
G01*
X194064200Y-105500677D01*
G75*
G02*
X193737277Y-105827600I-326923J0D01*
G01*
X192241123Y-105827600D01*
G75*
G02*
X191914200Y-105500677I0J326923D01*
G01*
X191914200Y-104454523D01*
G75*
G02*
X192241123Y-104127600I326923J0D01*
G01*
G37*
G36*
G01*
X192241123Y-107227600D02*
X193737277Y-107227600D01*
G75*
G02*
X194064200Y-107554523I0J-326923D01*
G01*
X194064200Y-108600677D01*
G75*
G02*
X193737277Y-108927600I-326923J0D01*
G01*
X192241123Y-108927600D01*
G75*
G02*
X191914200Y-108600677I0J326923D01*
G01*
X191914200Y-107554523D01*
G75*
G02*
X192241123Y-107227600I326923J0D01*
G01*
G37*
G36*
G01*
X197874600Y-114415200D02*
X197874600Y-116115200D01*
G75*
G02*
X197674600Y-116315200I-200000J0D01*
G01*
X195974600Y-116315200D01*
G75*
G02*
X195774600Y-116115200I0J200000D01*
G01*
X195774600Y-114415200D01*
G75*
G02*
X195974600Y-114215200I200000J0D01*
G01*
X197674600Y-114215200D01*
G75*
G02*
X197874600Y-114415200I0J-200000D01*
G01*
G37*
D15*
X196824600Y-112725200D03*
X196824600Y-110185200D03*
X196824600Y-107645200D03*
M02*
